%TF.GenerationSoftware,KiCad,Pcbnew,9.0.7*%
%TF.CreationDate,2026-03-20T10:46:38+08:00*%
%TF.ProjectId,hackpaderdelta,6861636b-7061-4646-9572-64656c74612e,rev?*%
%TF.SameCoordinates,Original*%
%TF.FileFunction,Copper,L2,Bot*%
%TF.FilePolarity,Positive*%
%FSLAX46Y46*%
G04 Gerber Fmt 4.6, Leading zero omitted, Abs format (unit mm)*
G04 Created by KiCad (PCBNEW 9.0.7) date 2026-03-20 10:46:38*
%MOMM*%
%LPD*%
G01*
G04 APERTURE LIST*
G04 Aperture macros list*
%AMRoundRect*
0 Rectangle with rounded corners*
0 $1 Rounding radius*
0 $2 $3 $4 $5 $6 $7 $8 $9 X,Y pos of 4 corners*
0 Add a 4 corners polygon primitive as box body*
4,1,4,$2,$3,$4,$5,$6,$7,$8,$9,$2,$3,0*
0 Add four circle primitives for the rounded corners*
1,1,$1+$1,$2,$3*
1,1,$1+$1,$4,$5*
1,1,$1+$1,$6,$7*
1,1,$1+$1,$8,$9*
0 Add four rect primitives between the rounded corners*
20,1,$1+$1,$2,$3,$4,$5,0*
20,1,$1+$1,$4,$5,$6,$7,0*
20,1,$1+$1,$6,$7,$8,$9,0*
20,1,$1+$1,$8,$9,$2,$3,0*%
G04 Aperture macros list end*
%TA.AperFunction,ComponentPad*%
%ADD10C,2.200000*%
%TD*%
%TA.AperFunction,ComponentPad*%
%ADD11R,3.500000X1.700000*%
%TD*%
%TA.AperFunction,ComponentPad*%
%ADD12O,3.600000X1.700000*%
%TD*%
%TA.AperFunction,ComponentPad*%
%ADD13O,3.700000X1.700000*%
%TD*%
%TA.AperFunction,ComponentPad*%
%ADD14R,1.700000X1.700000*%
%TD*%
%TA.AperFunction,ComponentPad*%
%ADD15O,1.700000X1.700000*%
%TD*%
%TA.AperFunction,ComponentPad*%
%ADD16R,2.000000X2.000000*%
%TD*%
%TA.AperFunction,ComponentPad*%
%ADD17C,2.000000*%
%TD*%
%TA.AperFunction,ComponentPad*%
%ADD18C,3.200000*%
%TD*%
%TA.AperFunction,SMDPad,CuDef*%
%ADD19RoundRect,0.082000X-0.718000X0.328000X-0.718000X-0.328000X0.718000X-0.328000X0.718000X0.328000X0*%
%TD*%
%TA.AperFunction,Conductor*%
%ADD20C,0.200000*%
%TD*%
G04 APERTURE END LIST*
D10*
%TO.P,SW2,1,1*%
%TO.N,Net-(U1-PA4_A1_D1)*%
X118500000Y-123000000D03*
%TO.P,SW2,2,2*%
%TO.N,GND*%
X112150000Y-125540000D03*
%TD*%
%TO.P,SW4,1,1*%
%TO.N,Net-(U1-PA11_A3_D3)*%
X160500000Y-123000000D03*
%TO.P,SW4,2,2*%
%TO.N,GND*%
X154150000Y-125540000D03*
%TD*%
D11*
%TO.P,U1,1,PA02_A0_D0*%
%TO.N,Net-(U1-PA02_A0_D0)*%
X128375000Y-100880000D03*
D12*
%TO.P,U1,2,PA4_A1_D1*%
%TO.N,Net-(U1-PA4_A1_D1)*%
X128375000Y-103420000D03*
%TO.P,U1,3,PA10_A2_D2*%
%TO.N,Net-(U1-PA10_A2_D2)*%
X128375000Y-105960000D03*
%TO.P,U1,4,PA11_A3_D3*%
%TO.N,Net-(U1-PA11_A3_D3)*%
X128375000Y-108500000D03*
%TO.P,U1,5,PA8_A4_D4_SDA*%
%TO.N,SDA*%
X128375000Y-111040000D03*
%TO.P,U1,6,PA9_A5_D5_SCL*%
%TO.N,SCL*%
X128375000Y-113580000D03*
%TO.P,U1,7,PB08_A6_D6_TX*%
%TO.N,ws2821b*%
X128375000Y-116120000D03*
%TO.P,U1,8,PB09_A7_D7_RX*%
%TO.N,ec11b*%
X145625000Y-116120000D03*
%TO.P,U1,9,PA7_A8_D8_SCK*%
%TO.N,ec11a*%
X145625000Y-113580000D03*
%TO.P,U1,10,PA5_A9_D9_MISO*%
%TO.N,ec11swb*%
X145625000Y-111040000D03*
D13*
%TO.P,U1,11,PA6_A10_D10_MOSI*%
%TO.N,ec11swa*%
X145625000Y-108500000D03*
%TO.P,U1,12,3V3*%
%TO.N,unconnected-(U1-3V3-Pad12)*%
X145625000Y-105960000D03*
%TO.P,U1,13,GND*%
%TO.N,GND*%
X145625000Y-103420000D03*
%TO.P,U1,14,5V*%
%TO.N,VCC*%
X145625000Y-100880000D03*
%TD*%
D14*
%TO.P,J1,1,Pin_1*%
%TO.N,GND*%
X154500000Y-151690000D03*
D15*
%TO.P,J1,2,Pin_2*%
%TO.N,VCC*%
X154500000Y-154230000D03*
%TO.P,J1,3,Pin_3*%
%TO.N,SCL*%
X154500000Y-156770000D03*
%TO.P,J1,4,Pin_4*%
%TO.N,SDA*%
X154500000Y-159310000D03*
%TD*%
D16*
%TO.P,SW5,A,A*%
%TO.N,ec11b*%
X129500000Y-136000000D03*
D17*
%TO.P,SW5,B,B*%
%TO.N,ec11a*%
X129500000Y-141000000D03*
%TO.P,SW5,C,C*%
%TO.N,GND*%
X129500000Y-138500000D03*
D18*
%TO.P,SW5,MP*%
%TO.N,N/C*%
X137000000Y-132900000D03*
X137000000Y-144100000D03*
D17*
%TO.P,SW5,S1,S1*%
%TO.N,ec11swb*%
X144000000Y-141000000D03*
%TO.P,SW5,S2,S2*%
%TO.N,ec11swa*%
X144000000Y-136000000D03*
%TD*%
D19*
%TO.P,D3,1,VDD*%
%TO.N,VCC*%
X138900001Y-122147158D03*
%TO.P,D3,2,DOUT*%
%TO.N,unconnected-(D3-DOUT-Pad2)*%
X138900001Y-123647158D03*
%TO.P,D3,3,VSS*%
%TO.N,GND*%
X144100001Y-123647158D03*
%TO.P,D3,4,DIN*%
%TO.N,Net-(D1-DOUT)*%
X144100001Y-122147158D03*
%TD*%
D10*
%TO.P,SW3,1,1*%
%TO.N,Net-(U1-PA10_A2_D2)*%
X160500000Y-103000000D03*
%TO.P,SW3,2,2*%
%TO.N,GND*%
X154150000Y-105540000D03*
%TD*%
%TO.P,SW1,1,1*%
%TO.N,Net-(U1-PA02_A0_D0)*%
X118500000Y-103000000D03*
%TO.P,SW1,2,2*%
%TO.N,GND*%
X112150000Y-105540000D03*
%TD*%
D19*
%TO.P,D1,1,VDD*%
%TO.N,VCC*%
X129400001Y-122147158D03*
%TO.P,D1,2,DOUT*%
%TO.N,Net-(D1-DOUT)*%
X129400001Y-123647158D03*
%TO.P,D1,3,VSS*%
%TO.N,GND*%
X134600001Y-123647158D03*
%TO.P,D1,4,DIN*%
%TO.N,ws2821b*%
X134600001Y-122147158D03*
%TD*%
D20*
%TO.N,GND*%
X135000000Y-126500000D02*
X137500000Y-126500000D01*
X137500000Y-118500000D02*
X154150000Y-118500000D01*
X122998470Y-138500000D02*
X112150000Y-127651530D01*
X129500000Y-138500000D02*
X122998470Y-138500000D01*
X112150000Y-105540000D02*
X112150000Y-125540000D01*
X154500000Y-151690000D02*
X154500000Y-125890000D01*
X137500000Y-126500000D02*
X144500000Y-126500000D01*
X129500000Y-138500000D02*
X135099000Y-144099000D01*
X137500000Y-126500000D02*
X137500000Y-118500000D01*
X154150000Y-118500000D02*
X154150000Y-105540000D01*
X112150000Y-127651530D02*
X112150000Y-125540000D01*
X144500000Y-126500000D02*
X144100001Y-126100001D01*
X141901580Y-151690000D02*
X154500000Y-151690000D01*
X135099000Y-144099000D02*
X135099000Y-144887420D01*
X135099000Y-144887420D02*
X141901580Y-151690000D01*
X154500000Y-125890000D02*
X154150000Y-125540000D01*
X152030000Y-103420000D02*
X144625000Y-103420000D01*
X154150000Y-125540000D02*
X154150000Y-118500000D01*
X144100001Y-126100001D02*
X144100001Y-123647158D01*
X154150000Y-105540000D02*
X152030000Y-103420000D01*
X134600001Y-126100001D02*
X135000000Y-126500000D01*
X134600001Y-123647158D02*
X134600001Y-126100001D01*
%TO.N,VCC*%
X146500000Y-119500000D02*
X139500000Y-119500000D01*
X139500000Y-119500000D02*
X138900001Y-120099999D01*
X128299001Y-123158244D02*
X128299001Y-124136072D01*
X133162929Y-129000000D02*
X147000000Y-129000000D01*
X147000000Y-120000000D02*
X146500000Y-119500000D01*
X129310087Y-122147158D02*
X128299001Y-123158244D01*
X155651000Y-153079000D02*
X155651000Y-150539000D01*
X155551000Y-150439000D02*
X155551000Y-104959686D01*
X126948240Y-114969000D02*
X126274000Y-115643240D01*
X126274000Y-115643240D02*
X126274000Y-119021157D01*
X154500000Y-154230000D02*
X155651000Y-153079000D01*
X155651000Y-150539000D02*
X155551000Y-150439000D01*
X130536000Y-114969000D02*
X126948240Y-114969000D01*
X147000000Y-129000000D02*
X147000000Y-120000000D01*
X151471314Y-100880000D02*
X144625000Y-100880000D01*
X129400001Y-122147158D02*
X129310087Y-122147158D01*
X144625000Y-100880000D02*
X130536000Y-114969000D01*
X128299001Y-124136072D02*
X133162929Y-129000000D01*
X138900001Y-120099999D02*
X138900001Y-122147158D01*
X126274000Y-119021157D02*
X129400001Y-122147158D01*
X155551000Y-104959686D02*
X151471314Y-100880000D01*
%TO.N,ws2821b*%
X134500000Y-120500000D02*
X129500000Y-120500000D01*
X129500000Y-116245000D02*
X129375000Y-116120000D01*
X134600001Y-122147158D02*
X134600001Y-120600001D01*
X134600001Y-120600001D02*
X134500000Y-120500000D01*
X129500000Y-120500000D02*
X129500000Y-116245000D01*
%TO.N,Net-(D1-DOUT)*%
X129400001Y-124669972D02*
X133329029Y-128599000D01*
X129400001Y-123647158D02*
X129400001Y-124669972D01*
X146500000Y-128599000D02*
X146500000Y-122000000D01*
X146352842Y-122147158D02*
X144100001Y-122147158D01*
X133329029Y-128599000D02*
X146500000Y-128599000D01*
X146500000Y-122000000D02*
X146352842Y-122147158D01*
%TD*%
M02*
