%TF.GenerationSoftware,KiCad,Pcbnew,9.0.7*%
%TF.CreationDate,2026-03-19T12:04:40+08:00*%
%TF.ProjectId,hackpaderdelta,6861636b-7061-4646-9572-64656c74612e,rev?*%
%TF.SameCoordinates,Original*%
%TF.FileFunction,Legend,Top*%
%TF.FilePolarity,Positive*%
%FSLAX46Y46*%
G04 Gerber Fmt 4.6, Leading zero omitted, Abs format (unit mm)*
G04 Created by KiCad (PCBNEW 9.0.7) date 2026-03-19 12:04:40*
%MOMM*%
%LPD*%
G01*
G04 APERTURE LIST*
%ADD10C,0.150000*%
%ADD11C,0.101600*%
%ADD12C,0.120000*%
%ADD13C,0.127000*%
%ADD14C,0.254000*%
%ADD15C,0.025400*%
%ADD16C,0.040000*%
G04 APERTURE END LIST*
D10*
X141261905Y-119954819D02*
X141261905Y-118954819D01*
X141261905Y-118954819D02*
X141500000Y-118954819D01*
X141500000Y-118954819D02*
X141642857Y-119002438D01*
X141642857Y-119002438D02*
X141738095Y-119097676D01*
X141738095Y-119097676D02*
X141785714Y-119192914D01*
X141785714Y-119192914D02*
X141833333Y-119383390D01*
X141833333Y-119383390D02*
X141833333Y-119526247D01*
X141833333Y-119526247D02*
X141785714Y-119716723D01*
X141785714Y-119716723D02*
X141738095Y-119811961D01*
X141738095Y-119811961D02*
X141642857Y-119907200D01*
X141642857Y-119907200D02*
X141500000Y-119954819D01*
X141500000Y-119954819D02*
X141261905Y-119954819D01*
X142214286Y-119050057D02*
X142261905Y-119002438D01*
X142261905Y-119002438D02*
X142357143Y-118954819D01*
X142357143Y-118954819D02*
X142595238Y-118954819D01*
X142595238Y-118954819D02*
X142690476Y-119002438D01*
X142690476Y-119002438D02*
X142738095Y-119050057D01*
X142738095Y-119050057D02*
X142785714Y-119145295D01*
X142785714Y-119145295D02*
X142785714Y-119240533D01*
X142785714Y-119240533D02*
X142738095Y-119383390D01*
X142738095Y-119383390D02*
X142166667Y-119954819D01*
X142166667Y-119954819D02*
X142785714Y-119954819D01*
X138228571Y-121762295D02*
X137771428Y-121762295D01*
X138000000Y-121762295D02*
X138000000Y-120962295D01*
X138000000Y-120962295D02*
X137923809Y-121076580D01*
X137923809Y-121076580D02*
X137847619Y-121152771D01*
X137847619Y-121152771D02*
X137771428Y-121190866D01*
X114626667Y-120613200D02*
X114769524Y-120660819D01*
X114769524Y-120660819D02*
X115007619Y-120660819D01*
X115007619Y-120660819D02*
X115102857Y-120613200D01*
X115102857Y-120613200D02*
X115150476Y-120565580D01*
X115150476Y-120565580D02*
X115198095Y-120470342D01*
X115198095Y-120470342D02*
X115198095Y-120375104D01*
X115198095Y-120375104D02*
X115150476Y-120279866D01*
X115150476Y-120279866D02*
X115102857Y-120232247D01*
X115102857Y-120232247D02*
X115007619Y-120184628D01*
X115007619Y-120184628D02*
X114817143Y-120137009D01*
X114817143Y-120137009D02*
X114721905Y-120089390D01*
X114721905Y-120089390D02*
X114674286Y-120041771D01*
X114674286Y-120041771D02*
X114626667Y-119946533D01*
X114626667Y-119946533D02*
X114626667Y-119851295D01*
X114626667Y-119851295D02*
X114674286Y-119756057D01*
X114674286Y-119756057D02*
X114721905Y-119708438D01*
X114721905Y-119708438D02*
X114817143Y-119660819D01*
X114817143Y-119660819D02*
X115055238Y-119660819D01*
X115055238Y-119660819D02*
X115198095Y-119708438D01*
X115531429Y-119660819D02*
X115769524Y-120660819D01*
X115769524Y-120660819D02*
X115960000Y-119946533D01*
X115960000Y-119946533D02*
X116150476Y-120660819D01*
X116150476Y-120660819D02*
X116388572Y-119660819D01*
X116721905Y-119756057D02*
X116769524Y-119708438D01*
X116769524Y-119708438D02*
X116864762Y-119660819D01*
X116864762Y-119660819D02*
X117102857Y-119660819D01*
X117102857Y-119660819D02*
X117198095Y-119708438D01*
X117198095Y-119708438D02*
X117245714Y-119756057D01*
X117245714Y-119756057D02*
X117293333Y-119851295D01*
X117293333Y-119851295D02*
X117293333Y-119946533D01*
X117293333Y-119946533D02*
X117245714Y-120089390D01*
X117245714Y-120089390D02*
X116674286Y-120660819D01*
X116674286Y-120660819D02*
X117293333Y-120660819D01*
X156626667Y-120613200D02*
X156769524Y-120660819D01*
X156769524Y-120660819D02*
X157007619Y-120660819D01*
X157007619Y-120660819D02*
X157102857Y-120613200D01*
X157102857Y-120613200D02*
X157150476Y-120565580D01*
X157150476Y-120565580D02*
X157198095Y-120470342D01*
X157198095Y-120470342D02*
X157198095Y-120375104D01*
X157198095Y-120375104D02*
X157150476Y-120279866D01*
X157150476Y-120279866D02*
X157102857Y-120232247D01*
X157102857Y-120232247D02*
X157007619Y-120184628D01*
X157007619Y-120184628D02*
X156817143Y-120137009D01*
X156817143Y-120137009D02*
X156721905Y-120089390D01*
X156721905Y-120089390D02*
X156674286Y-120041771D01*
X156674286Y-120041771D02*
X156626667Y-119946533D01*
X156626667Y-119946533D02*
X156626667Y-119851295D01*
X156626667Y-119851295D02*
X156674286Y-119756057D01*
X156674286Y-119756057D02*
X156721905Y-119708438D01*
X156721905Y-119708438D02*
X156817143Y-119660819D01*
X156817143Y-119660819D02*
X157055238Y-119660819D01*
X157055238Y-119660819D02*
X157198095Y-119708438D01*
X157531429Y-119660819D02*
X157769524Y-120660819D01*
X157769524Y-120660819D02*
X157960000Y-119946533D01*
X157960000Y-119946533D02*
X158150476Y-120660819D01*
X158150476Y-120660819D02*
X158388572Y-119660819D01*
X159198095Y-119994152D02*
X159198095Y-120660819D01*
X158960000Y-119613200D02*
X158721905Y-120327485D01*
X158721905Y-120327485D02*
X159340952Y-120327485D01*
D11*
X136322666Y-110556985D02*
X136322666Y-111276652D01*
X136322666Y-111276652D02*
X136365000Y-111361318D01*
X136365000Y-111361318D02*
X136407333Y-111403652D01*
X136407333Y-111403652D02*
X136492000Y-111445985D01*
X136492000Y-111445985D02*
X136661333Y-111445985D01*
X136661333Y-111445985D02*
X136746000Y-111403652D01*
X136746000Y-111403652D02*
X136788333Y-111361318D01*
X136788333Y-111361318D02*
X136830666Y-111276652D01*
X136830666Y-111276652D02*
X136830666Y-110556985D01*
X137719666Y-111445985D02*
X137211666Y-111445985D01*
X137465666Y-111445985D02*
X137465666Y-110556985D01*
X137465666Y-110556985D02*
X137380999Y-110683985D01*
X137380999Y-110683985D02*
X137296333Y-110768652D01*
X137296333Y-110768652D02*
X137211666Y-110810985D01*
D10*
X135476191Y-108454819D02*
X136142857Y-109454819D01*
X136142857Y-108454819D02*
X135476191Y-109454819D01*
X136523810Y-109454819D02*
X136523810Y-108454819D01*
X136952381Y-109169104D02*
X137428571Y-109169104D01*
X136857143Y-109454819D02*
X137190476Y-108454819D01*
X137190476Y-108454819D02*
X137523809Y-109454819D01*
X138047619Y-108454819D02*
X138238095Y-108454819D01*
X138238095Y-108454819D02*
X138333333Y-108502438D01*
X138333333Y-108502438D02*
X138428571Y-108597676D01*
X138428571Y-108597676D02*
X138476190Y-108788152D01*
X138476190Y-108788152D02*
X138476190Y-109121485D01*
X138476190Y-109121485D02*
X138428571Y-109311961D01*
X138428571Y-109311961D02*
X138333333Y-109407200D01*
X138333333Y-109407200D02*
X138238095Y-109454819D01*
X138238095Y-109454819D02*
X138047619Y-109454819D01*
X138047619Y-109454819D02*
X137952381Y-109407200D01*
X137952381Y-109407200D02*
X137857143Y-109311961D01*
X137857143Y-109311961D02*
X137809524Y-109121485D01*
X137809524Y-109121485D02*
X137809524Y-108788152D01*
X137809524Y-108788152D02*
X137857143Y-108597676D01*
X137857143Y-108597676D02*
X137952381Y-108502438D01*
X137952381Y-108502438D02*
X138047619Y-108454819D01*
X132238095Y-107407200D02*
X132380952Y-107454819D01*
X132380952Y-107454819D02*
X132619047Y-107454819D01*
X132619047Y-107454819D02*
X132714285Y-107407200D01*
X132714285Y-107407200D02*
X132761904Y-107359580D01*
X132761904Y-107359580D02*
X132809523Y-107264342D01*
X132809523Y-107264342D02*
X132809523Y-107169104D01*
X132809523Y-107169104D02*
X132761904Y-107073866D01*
X132761904Y-107073866D02*
X132714285Y-107026247D01*
X132714285Y-107026247D02*
X132619047Y-106978628D01*
X132619047Y-106978628D02*
X132428571Y-106931009D01*
X132428571Y-106931009D02*
X132333333Y-106883390D01*
X132333333Y-106883390D02*
X132285714Y-106835771D01*
X132285714Y-106835771D02*
X132238095Y-106740533D01*
X132238095Y-106740533D02*
X132238095Y-106645295D01*
X132238095Y-106645295D02*
X132285714Y-106550057D01*
X132285714Y-106550057D02*
X132333333Y-106502438D01*
X132333333Y-106502438D02*
X132428571Y-106454819D01*
X132428571Y-106454819D02*
X132666666Y-106454819D01*
X132666666Y-106454819D02*
X132809523Y-106502438D01*
X133619047Y-107407200D02*
X133523809Y-107454819D01*
X133523809Y-107454819D02*
X133333333Y-107454819D01*
X133333333Y-107454819D02*
X133238095Y-107407200D01*
X133238095Y-107407200D02*
X133190476Y-107311961D01*
X133190476Y-107311961D02*
X133190476Y-106931009D01*
X133190476Y-106931009D02*
X133238095Y-106835771D01*
X133238095Y-106835771D02*
X133333333Y-106788152D01*
X133333333Y-106788152D02*
X133523809Y-106788152D01*
X133523809Y-106788152D02*
X133619047Y-106835771D01*
X133619047Y-106835771D02*
X133666666Y-106931009D01*
X133666666Y-106931009D02*
X133666666Y-107026247D01*
X133666666Y-107026247D02*
X133190476Y-107121485D01*
X134476190Y-107407200D02*
X134380952Y-107454819D01*
X134380952Y-107454819D02*
X134190476Y-107454819D01*
X134190476Y-107454819D02*
X134095238Y-107407200D01*
X134095238Y-107407200D02*
X134047619Y-107311961D01*
X134047619Y-107311961D02*
X134047619Y-106931009D01*
X134047619Y-106931009D02*
X134095238Y-106835771D01*
X134095238Y-106835771D02*
X134190476Y-106788152D01*
X134190476Y-106788152D02*
X134380952Y-106788152D01*
X134380952Y-106788152D02*
X134476190Y-106835771D01*
X134476190Y-106835771D02*
X134523809Y-106931009D01*
X134523809Y-106931009D02*
X134523809Y-107026247D01*
X134523809Y-107026247D02*
X134047619Y-107121485D01*
X135333333Y-107407200D02*
X135238095Y-107454819D01*
X135238095Y-107454819D02*
X135047619Y-107454819D01*
X135047619Y-107454819D02*
X134952381Y-107407200D01*
X134952381Y-107407200D02*
X134904762Y-107311961D01*
X134904762Y-107311961D02*
X134904762Y-106931009D01*
X134904762Y-106931009D02*
X134952381Y-106835771D01*
X134952381Y-106835771D02*
X135047619Y-106788152D01*
X135047619Y-106788152D02*
X135238095Y-106788152D01*
X135238095Y-106788152D02*
X135333333Y-106835771D01*
X135333333Y-106835771D02*
X135380952Y-106931009D01*
X135380952Y-106931009D02*
X135380952Y-107026247D01*
X135380952Y-107026247D02*
X134904762Y-107121485D01*
X136238095Y-107454819D02*
X136238095Y-106454819D01*
X136238095Y-107407200D02*
X136142857Y-107454819D01*
X136142857Y-107454819D02*
X135952381Y-107454819D01*
X135952381Y-107454819D02*
X135857143Y-107407200D01*
X135857143Y-107407200D02*
X135809524Y-107359580D01*
X135809524Y-107359580D02*
X135761905Y-107264342D01*
X135761905Y-107264342D02*
X135761905Y-106978628D01*
X135761905Y-106978628D02*
X135809524Y-106883390D01*
X135809524Y-106883390D02*
X135857143Y-106835771D01*
X135857143Y-106835771D02*
X135952381Y-106788152D01*
X135952381Y-106788152D02*
X136142857Y-106788152D01*
X136142857Y-106788152D02*
X136238095Y-106835771D01*
X137428572Y-107407200D02*
X137571429Y-107454819D01*
X137571429Y-107454819D02*
X137809524Y-107454819D01*
X137809524Y-107454819D02*
X137904762Y-107407200D01*
X137904762Y-107407200D02*
X137952381Y-107359580D01*
X137952381Y-107359580D02*
X138000000Y-107264342D01*
X138000000Y-107264342D02*
X138000000Y-107169104D01*
X138000000Y-107169104D02*
X137952381Y-107073866D01*
X137952381Y-107073866D02*
X137904762Y-107026247D01*
X137904762Y-107026247D02*
X137809524Y-106978628D01*
X137809524Y-106978628D02*
X137619048Y-106931009D01*
X137619048Y-106931009D02*
X137523810Y-106883390D01*
X137523810Y-106883390D02*
X137476191Y-106835771D01*
X137476191Y-106835771D02*
X137428572Y-106740533D01*
X137428572Y-106740533D02*
X137428572Y-106645295D01*
X137428572Y-106645295D02*
X137476191Y-106550057D01*
X137476191Y-106550057D02*
X137523810Y-106502438D01*
X137523810Y-106502438D02*
X137619048Y-106454819D01*
X137619048Y-106454819D02*
X137857143Y-106454819D01*
X137857143Y-106454819D02*
X138000000Y-106502438D01*
X138285715Y-106788152D02*
X138666667Y-106788152D01*
X138428572Y-106454819D02*
X138428572Y-107311961D01*
X138428572Y-107311961D02*
X138476191Y-107407200D01*
X138476191Y-107407200D02*
X138571429Y-107454819D01*
X138571429Y-107454819D02*
X138666667Y-107454819D01*
X139428572Y-106788152D02*
X139428572Y-107454819D01*
X139000001Y-106788152D02*
X139000001Y-107311961D01*
X139000001Y-107311961D02*
X139047620Y-107407200D01*
X139047620Y-107407200D02*
X139142858Y-107454819D01*
X139142858Y-107454819D02*
X139285715Y-107454819D01*
X139285715Y-107454819D02*
X139380953Y-107407200D01*
X139380953Y-107407200D02*
X139428572Y-107359580D01*
X140333334Y-107454819D02*
X140333334Y-106454819D01*
X140333334Y-107407200D02*
X140238096Y-107454819D01*
X140238096Y-107454819D02*
X140047620Y-107454819D01*
X140047620Y-107454819D02*
X139952382Y-107407200D01*
X139952382Y-107407200D02*
X139904763Y-107359580D01*
X139904763Y-107359580D02*
X139857144Y-107264342D01*
X139857144Y-107264342D02*
X139857144Y-106978628D01*
X139857144Y-106978628D02*
X139904763Y-106883390D01*
X139904763Y-106883390D02*
X139952382Y-106835771D01*
X139952382Y-106835771D02*
X140047620Y-106788152D01*
X140047620Y-106788152D02*
X140238096Y-106788152D01*
X140238096Y-106788152D02*
X140333334Y-106835771D01*
X140809525Y-107454819D02*
X140809525Y-106788152D01*
X140809525Y-106454819D02*
X140761906Y-106502438D01*
X140761906Y-106502438D02*
X140809525Y-106550057D01*
X140809525Y-106550057D02*
X140857144Y-106502438D01*
X140857144Y-106502438D02*
X140809525Y-106454819D01*
X140809525Y-106454819D02*
X140809525Y-106550057D01*
X141428572Y-107454819D02*
X141333334Y-107407200D01*
X141333334Y-107407200D02*
X141285715Y-107359580D01*
X141285715Y-107359580D02*
X141238096Y-107264342D01*
X141238096Y-107264342D02*
X141238096Y-106978628D01*
X141238096Y-106978628D02*
X141285715Y-106883390D01*
X141285715Y-106883390D02*
X141333334Y-106835771D01*
X141333334Y-106835771D02*
X141428572Y-106788152D01*
X141428572Y-106788152D02*
X141571429Y-106788152D01*
X141571429Y-106788152D02*
X141666667Y-106835771D01*
X141666667Y-106835771D02*
X141714286Y-106883390D01*
X141714286Y-106883390D02*
X141761905Y-106978628D01*
X141761905Y-106978628D02*
X141761905Y-107264342D01*
X141761905Y-107264342D02*
X141714286Y-107359580D01*
X141714286Y-107359580D02*
X141666667Y-107407200D01*
X141666667Y-107407200D02*
X141571429Y-107454819D01*
X141571429Y-107454819D02*
X141428572Y-107454819D01*
X119354819Y-155743333D02*
X120069104Y-155743333D01*
X120069104Y-155743333D02*
X120211961Y-155790952D01*
X120211961Y-155790952D02*
X120307200Y-155886190D01*
X120307200Y-155886190D02*
X120354819Y-156029047D01*
X120354819Y-156029047D02*
X120354819Y-156124285D01*
X120354819Y-154743333D02*
X120354819Y-155314761D01*
X120354819Y-155029047D02*
X119354819Y-155029047D01*
X119354819Y-155029047D02*
X119497676Y-155124285D01*
X119497676Y-155124285D02*
X119592914Y-155219523D01*
X119592914Y-155219523D02*
X119640533Y-155314761D01*
X132956428Y-154839819D02*
X133146904Y-154839819D01*
X133146904Y-154839819D02*
X133242142Y-154887438D01*
X133242142Y-154887438D02*
X133337380Y-154982676D01*
X133337380Y-154982676D02*
X133384999Y-155173152D01*
X133384999Y-155173152D02*
X133384999Y-155506485D01*
X133384999Y-155506485D02*
X133337380Y-155696961D01*
X133337380Y-155696961D02*
X133242142Y-155792200D01*
X133242142Y-155792200D02*
X133146904Y-155839819D01*
X133146904Y-155839819D02*
X132956428Y-155839819D01*
X132956428Y-155839819D02*
X132861190Y-155792200D01*
X132861190Y-155792200D02*
X132765952Y-155696961D01*
X132765952Y-155696961D02*
X132718333Y-155506485D01*
X132718333Y-155506485D02*
X132718333Y-155173152D01*
X132718333Y-155173152D02*
X132765952Y-154982676D01*
X132765952Y-154982676D02*
X132861190Y-154887438D01*
X132861190Y-154887438D02*
X132956428Y-154839819D01*
X134289761Y-155839819D02*
X133813571Y-155839819D01*
X133813571Y-155839819D02*
X133813571Y-154839819D01*
X134623095Y-155316009D02*
X134956428Y-155316009D01*
X135099285Y-155839819D02*
X134623095Y-155839819D01*
X134623095Y-155839819D02*
X134623095Y-154839819D01*
X134623095Y-154839819D02*
X135099285Y-154839819D01*
X135527857Y-155839819D02*
X135527857Y-154839819D01*
X135527857Y-154839819D02*
X135765952Y-154839819D01*
X135765952Y-154839819D02*
X135908809Y-154887438D01*
X135908809Y-154887438D02*
X136004047Y-154982676D01*
X136004047Y-154982676D02*
X136051666Y-155077914D01*
X136051666Y-155077914D02*
X136099285Y-155268390D01*
X136099285Y-155268390D02*
X136099285Y-155411247D01*
X136099285Y-155411247D02*
X136051666Y-155601723D01*
X136051666Y-155601723D02*
X136004047Y-155696961D01*
X136004047Y-155696961D02*
X135908809Y-155792200D01*
X135908809Y-155792200D02*
X135765952Y-155839819D01*
X135765952Y-155839819D02*
X135527857Y-155839819D01*
X137289762Y-155839819D02*
X137289762Y-154839819D01*
X137289762Y-154839819D02*
X137670714Y-154839819D01*
X137670714Y-154839819D02*
X137765952Y-154887438D01*
X137765952Y-154887438D02*
X137813571Y-154935057D01*
X137813571Y-154935057D02*
X137861190Y-155030295D01*
X137861190Y-155030295D02*
X137861190Y-155173152D01*
X137861190Y-155173152D02*
X137813571Y-155268390D01*
X137813571Y-155268390D02*
X137765952Y-155316009D01*
X137765952Y-155316009D02*
X137670714Y-155363628D01*
X137670714Y-155363628D02*
X137289762Y-155363628D01*
X138718333Y-155839819D02*
X138718333Y-155316009D01*
X138718333Y-155316009D02*
X138670714Y-155220771D01*
X138670714Y-155220771D02*
X138575476Y-155173152D01*
X138575476Y-155173152D02*
X138385000Y-155173152D01*
X138385000Y-155173152D02*
X138289762Y-155220771D01*
X138718333Y-155792200D02*
X138623095Y-155839819D01*
X138623095Y-155839819D02*
X138385000Y-155839819D01*
X138385000Y-155839819D02*
X138289762Y-155792200D01*
X138289762Y-155792200D02*
X138242143Y-155696961D01*
X138242143Y-155696961D02*
X138242143Y-155601723D01*
X138242143Y-155601723D02*
X138289762Y-155506485D01*
X138289762Y-155506485D02*
X138385000Y-155458866D01*
X138385000Y-155458866D02*
X138623095Y-155458866D01*
X138623095Y-155458866D02*
X138718333Y-155411247D01*
X139194524Y-155173152D02*
X139194524Y-155839819D01*
X139194524Y-155268390D02*
X139242143Y-155220771D01*
X139242143Y-155220771D02*
X139337381Y-155173152D01*
X139337381Y-155173152D02*
X139480238Y-155173152D01*
X139480238Y-155173152D02*
X139575476Y-155220771D01*
X139575476Y-155220771D02*
X139623095Y-155316009D01*
X139623095Y-155316009D02*
X139623095Y-155839819D01*
X140480238Y-155792200D02*
X140385000Y-155839819D01*
X140385000Y-155839819D02*
X140194524Y-155839819D01*
X140194524Y-155839819D02*
X140099286Y-155792200D01*
X140099286Y-155792200D02*
X140051667Y-155696961D01*
X140051667Y-155696961D02*
X140051667Y-155316009D01*
X140051667Y-155316009D02*
X140099286Y-155220771D01*
X140099286Y-155220771D02*
X140194524Y-155173152D01*
X140194524Y-155173152D02*
X140385000Y-155173152D01*
X140385000Y-155173152D02*
X140480238Y-155220771D01*
X140480238Y-155220771D02*
X140527857Y-155316009D01*
X140527857Y-155316009D02*
X140527857Y-155411247D01*
X140527857Y-155411247D02*
X140051667Y-155506485D01*
X141099286Y-155839819D02*
X141004048Y-155792200D01*
X141004048Y-155792200D02*
X140956429Y-155696961D01*
X140956429Y-155696961D02*
X140956429Y-154839819D01*
X152089164Y-155229999D02*
X152839164Y-154979999D01*
X152839164Y-154979999D02*
X152089164Y-154729999D01*
X152767735Y-154051428D02*
X152803450Y-154087142D01*
X152803450Y-154087142D02*
X152839164Y-154194285D01*
X152839164Y-154194285D02*
X152839164Y-154265713D01*
X152839164Y-154265713D02*
X152803450Y-154372856D01*
X152803450Y-154372856D02*
X152732021Y-154444285D01*
X152732021Y-154444285D02*
X152660592Y-154479999D01*
X152660592Y-154479999D02*
X152517735Y-154515713D01*
X152517735Y-154515713D02*
X152410592Y-154515713D01*
X152410592Y-154515713D02*
X152267735Y-154479999D01*
X152267735Y-154479999D02*
X152196307Y-154444285D01*
X152196307Y-154444285D02*
X152124878Y-154372856D01*
X152124878Y-154372856D02*
X152089164Y-154265713D01*
X152089164Y-154265713D02*
X152089164Y-154194285D01*
X152089164Y-154194285D02*
X152124878Y-154087142D01*
X152124878Y-154087142D02*
X152160592Y-154051428D01*
X152767735Y-153301428D02*
X152803450Y-153337142D01*
X152803450Y-153337142D02*
X152839164Y-153444285D01*
X152839164Y-153444285D02*
X152839164Y-153515713D01*
X152839164Y-153515713D02*
X152803450Y-153622856D01*
X152803450Y-153622856D02*
X152732021Y-153694285D01*
X152732021Y-153694285D02*
X152660592Y-153729999D01*
X152660592Y-153729999D02*
X152517735Y-153765713D01*
X152517735Y-153765713D02*
X152410592Y-153765713D01*
X152410592Y-153765713D02*
X152267735Y-153729999D01*
X152267735Y-153729999D02*
X152196307Y-153694285D01*
X152196307Y-153694285D02*
X152124878Y-153622856D01*
X152124878Y-153622856D02*
X152089164Y-153515713D01*
X152089164Y-153515713D02*
X152089164Y-153444285D01*
X152089164Y-153444285D02*
X152124878Y-153337142D01*
X152124878Y-153337142D02*
X152160592Y-153301428D01*
X152803450Y-160220713D02*
X152839164Y-160113571D01*
X152839164Y-160113571D02*
X152839164Y-159934999D01*
X152839164Y-159934999D02*
X152803450Y-159863571D01*
X152803450Y-159863571D02*
X152767735Y-159827856D01*
X152767735Y-159827856D02*
X152696307Y-159792142D01*
X152696307Y-159792142D02*
X152624878Y-159792142D01*
X152624878Y-159792142D02*
X152553450Y-159827856D01*
X152553450Y-159827856D02*
X152517735Y-159863571D01*
X152517735Y-159863571D02*
X152482021Y-159934999D01*
X152482021Y-159934999D02*
X152446307Y-160077856D01*
X152446307Y-160077856D02*
X152410592Y-160149285D01*
X152410592Y-160149285D02*
X152374878Y-160184999D01*
X152374878Y-160184999D02*
X152303450Y-160220713D01*
X152303450Y-160220713D02*
X152232021Y-160220713D01*
X152232021Y-160220713D02*
X152160592Y-160184999D01*
X152160592Y-160184999D02*
X152124878Y-160149285D01*
X152124878Y-160149285D02*
X152089164Y-160077856D01*
X152089164Y-160077856D02*
X152089164Y-159899285D01*
X152089164Y-159899285D02*
X152124878Y-159792142D01*
X152839164Y-159470713D02*
X152089164Y-159470713D01*
X152089164Y-159470713D02*
X152089164Y-159292142D01*
X152089164Y-159292142D02*
X152124878Y-159184999D01*
X152124878Y-159184999D02*
X152196307Y-159113570D01*
X152196307Y-159113570D02*
X152267735Y-159077856D01*
X152267735Y-159077856D02*
X152410592Y-159042142D01*
X152410592Y-159042142D02*
X152517735Y-159042142D01*
X152517735Y-159042142D02*
X152660592Y-159077856D01*
X152660592Y-159077856D02*
X152732021Y-159113570D01*
X152732021Y-159113570D02*
X152803450Y-159184999D01*
X152803450Y-159184999D02*
X152839164Y-159292142D01*
X152839164Y-159292142D02*
X152839164Y-159470713D01*
X152624878Y-158756427D02*
X152624878Y-158399285D01*
X152839164Y-158827856D02*
X152089164Y-158577856D01*
X152089164Y-158577856D02*
X152839164Y-158327856D01*
X152803450Y-157662856D02*
X152839164Y-157555714D01*
X152839164Y-157555714D02*
X152839164Y-157377142D01*
X152839164Y-157377142D02*
X152803450Y-157305714D01*
X152803450Y-157305714D02*
X152767735Y-157269999D01*
X152767735Y-157269999D02*
X152696307Y-157234285D01*
X152696307Y-157234285D02*
X152624878Y-157234285D01*
X152624878Y-157234285D02*
X152553450Y-157269999D01*
X152553450Y-157269999D02*
X152517735Y-157305714D01*
X152517735Y-157305714D02*
X152482021Y-157377142D01*
X152482021Y-157377142D02*
X152446307Y-157519999D01*
X152446307Y-157519999D02*
X152410592Y-157591428D01*
X152410592Y-157591428D02*
X152374878Y-157627142D01*
X152374878Y-157627142D02*
X152303450Y-157662856D01*
X152303450Y-157662856D02*
X152232021Y-157662856D01*
X152232021Y-157662856D02*
X152160592Y-157627142D01*
X152160592Y-157627142D02*
X152124878Y-157591428D01*
X152124878Y-157591428D02*
X152089164Y-157519999D01*
X152089164Y-157519999D02*
X152089164Y-157341428D01*
X152089164Y-157341428D02*
X152124878Y-157234285D01*
X152767735Y-156484285D02*
X152803450Y-156519999D01*
X152803450Y-156519999D02*
X152839164Y-156627142D01*
X152839164Y-156627142D02*
X152839164Y-156698570D01*
X152839164Y-156698570D02*
X152803450Y-156805713D01*
X152803450Y-156805713D02*
X152732021Y-156877142D01*
X152732021Y-156877142D02*
X152660592Y-156912856D01*
X152660592Y-156912856D02*
X152517735Y-156948570D01*
X152517735Y-156948570D02*
X152410592Y-156948570D01*
X152410592Y-156948570D02*
X152267735Y-156912856D01*
X152267735Y-156912856D02*
X152196307Y-156877142D01*
X152196307Y-156877142D02*
X152124878Y-156805713D01*
X152124878Y-156805713D02*
X152089164Y-156698570D01*
X152089164Y-156698570D02*
X152089164Y-156627142D01*
X152089164Y-156627142D02*
X152124878Y-156519999D01*
X152124878Y-156519999D02*
X152160592Y-156484285D01*
X152839164Y-155805713D02*
X152839164Y-156162856D01*
X152839164Y-156162856D02*
X152089164Y-156162856D01*
X152124878Y-152261428D02*
X152089164Y-152332857D01*
X152089164Y-152332857D02*
X152089164Y-152439999D01*
X152089164Y-152439999D02*
X152124878Y-152547142D01*
X152124878Y-152547142D02*
X152196307Y-152618571D01*
X152196307Y-152618571D02*
X152267735Y-152654285D01*
X152267735Y-152654285D02*
X152410592Y-152689999D01*
X152410592Y-152689999D02*
X152517735Y-152689999D01*
X152517735Y-152689999D02*
X152660592Y-152654285D01*
X152660592Y-152654285D02*
X152732021Y-152618571D01*
X152732021Y-152618571D02*
X152803450Y-152547142D01*
X152803450Y-152547142D02*
X152839164Y-152439999D01*
X152839164Y-152439999D02*
X152839164Y-152368571D01*
X152839164Y-152368571D02*
X152803450Y-152261428D01*
X152803450Y-152261428D02*
X152767735Y-152225714D01*
X152767735Y-152225714D02*
X152517735Y-152225714D01*
X152517735Y-152225714D02*
X152517735Y-152368571D01*
X152839164Y-151904285D02*
X152089164Y-151904285D01*
X152089164Y-151904285D02*
X152839164Y-151475714D01*
X152839164Y-151475714D02*
X152089164Y-151475714D01*
X152839164Y-151118571D02*
X152089164Y-151118571D01*
X152089164Y-151118571D02*
X152089164Y-150940000D01*
X152089164Y-150940000D02*
X152124878Y-150832857D01*
X152124878Y-150832857D02*
X152196307Y-150761428D01*
X152196307Y-150761428D02*
X152267735Y-150725714D01*
X152267735Y-150725714D02*
X152410592Y-150690000D01*
X152410592Y-150690000D02*
X152517735Y-150690000D01*
X152517735Y-150690000D02*
X152660592Y-150725714D01*
X152660592Y-150725714D02*
X152732021Y-150761428D01*
X152732021Y-150761428D02*
X152803450Y-150832857D01*
X152803450Y-150832857D02*
X152839164Y-150940000D01*
X152839164Y-150940000D02*
X152839164Y-151118571D01*
X130966667Y-131707200D02*
X131109524Y-131754819D01*
X131109524Y-131754819D02*
X131347619Y-131754819D01*
X131347619Y-131754819D02*
X131442857Y-131707200D01*
X131442857Y-131707200D02*
X131490476Y-131659580D01*
X131490476Y-131659580D02*
X131538095Y-131564342D01*
X131538095Y-131564342D02*
X131538095Y-131469104D01*
X131538095Y-131469104D02*
X131490476Y-131373866D01*
X131490476Y-131373866D02*
X131442857Y-131326247D01*
X131442857Y-131326247D02*
X131347619Y-131278628D01*
X131347619Y-131278628D02*
X131157143Y-131231009D01*
X131157143Y-131231009D02*
X131061905Y-131183390D01*
X131061905Y-131183390D02*
X131014286Y-131135771D01*
X131014286Y-131135771D02*
X130966667Y-131040533D01*
X130966667Y-131040533D02*
X130966667Y-130945295D01*
X130966667Y-130945295D02*
X131014286Y-130850057D01*
X131014286Y-130850057D02*
X131061905Y-130802438D01*
X131061905Y-130802438D02*
X131157143Y-130754819D01*
X131157143Y-130754819D02*
X131395238Y-130754819D01*
X131395238Y-130754819D02*
X131538095Y-130802438D01*
X131871429Y-130754819D02*
X132109524Y-131754819D01*
X132109524Y-131754819D02*
X132300000Y-131040533D01*
X132300000Y-131040533D02*
X132490476Y-131754819D01*
X132490476Y-131754819D02*
X132728572Y-130754819D01*
X133585714Y-130754819D02*
X133109524Y-130754819D01*
X133109524Y-130754819D02*
X133061905Y-131231009D01*
X133061905Y-131231009D02*
X133109524Y-131183390D01*
X133109524Y-131183390D02*
X133204762Y-131135771D01*
X133204762Y-131135771D02*
X133442857Y-131135771D01*
X133442857Y-131135771D02*
X133538095Y-131183390D01*
X133538095Y-131183390D02*
X133585714Y-131231009D01*
X133585714Y-131231009D02*
X133633333Y-131326247D01*
X133633333Y-131326247D02*
X133633333Y-131564342D01*
X133633333Y-131564342D02*
X133585714Y-131659580D01*
X133585714Y-131659580D02*
X133538095Y-131707200D01*
X133538095Y-131707200D02*
X133442857Y-131754819D01*
X133442857Y-131754819D02*
X133204762Y-131754819D01*
X133204762Y-131754819D02*
X133109524Y-131707200D01*
X133109524Y-131707200D02*
X133061905Y-131659580D01*
X156626667Y-100613200D02*
X156769524Y-100660819D01*
X156769524Y-100660819D02*
X157007619Y-100660819D01*
X157007619Y-100660819D02*
X157102857Y-100613200D01*
X157102857Y-100613200D02*
X157150476Y-100565580D01*
X157150476Y-100565580D02*
X157198095Y-100470342D01*
X157198095Y-100470342D02*
X157198095Y-100375104D01*
X157198095Y-100375104D02*
X157150476Y-100279866D01*
X157150476Y-100279866D02*
X157102857Y-100232247D01*
X157102857Y-100232247D02*
X157007619Y-100184628D01*
X157007619Y-100184628D02*
X156817143Y-100137009D01*
X156817143Y-100137009D02*
X156721905Y-100089390D01*
X156721905Y-100089390D02*
X156674286Y-100041771D01*
X156674286Y-100041771D02*
X156626667Y-99946533D01*
X156626667Y-99946533D02*
X156626667Y-99851295D01*
X156626667Y-99851295D02*
X156674286Y-99756057D01*
X156674286Y-99756057D02*
X156721905Y-99708438D01*
X156721905Y-99708438D02*
X156817143Y-99660819D01*
X156817143Y-99660819D02*
X157055238Y-99660819D01*
X157055238Y-99660819D02*
X157198095Y-99708438D01*
X157531429Y-99660819D02*
X157769524Y-100660819D01*
X157769524Y-100660819D02*
X157960000Y-99946533D01*
X157960000Y-99946533D02*
X158150476Y-100660819D01*
X158150476Y-100660819D02*
X158388572Y-99660819D01*
X158674286Y-99660819D02*
X159293333Y-99660819D01*
X159293333Y-99660819D02*
X158960000Y-100041771D01*
X158960000Y-100041771D02*
X159102857Y-100041771D01*
X159102857Y-100041771D02*
X159198095Y-100089390D01*
X159198095Y-100089390D02*
X159245714Y-100137009D01*
X159245714Y-100137009D02*
X159293333Y-100232247D01*
X159293333Y-100232247D02*
X159293333Y-100470342D01*
X159293333Y-100470342D02*
X159245714Y-100565580D01*
X159245714Y-100565580D02*
X159198095Y-100613200D01*
X159198095Y-100613200D02*
X159102857Y-100660819D01*
X159102857Y-100660819D02*
X158817143Y-100660819D01*
X158817143Y-100660819D02*
X158721905Y-100613200D01*
X158721905Y-100613200D02*
X158674286Y-100565580D01*
X131261905Y-119954819D02*
X131261905Y-118954819D01*
X131261905Y-118954819D02*
X131500000Y-118954819D01*
X131500000Y-118954819D02*
X131642857Y-119002438D01*
X131642857Y-119002438D02*
X131738095Y-119097676D01*
X131738095Y-119097676D02*
X131785714Y-119192914D01*
X131785714Y-119192914D02*
X131833333Y-119383390D01*
X131833333Y-119383390D02*
X131833333Y-119526247D01*
X131833333Y-119526247D02*
X131785714Y-119716723D01*
X131785714Y-119716723D02*
X131738095Y-119811961D01*
X131738095Y-119811961D02*
X131642857Y-119907200D01*
X131642857Y-119907200D02*
X131500000Y-119954819D01*
X131500000Y-119954819D02*
X131261905Y-119954819D01*
X132785714Y-119954819D02*
X132214286Y-119954819D01*
X132500000Y-119954819D02*
X132500000Y-118954819D01*
X132500000Y-118954819D02*
X132404762Y-119097676D01*
X132404762Y-119097676D02*
X132309524Y-119192914D01*
X132309524Y-119192914D02*
X132214286Y-119240533D01*
X128228571Y-121762295D02*
X127771428Y-121762295D01*
X128000000Y-121762295D02*
X128000000Y-120962295D01*
X128000000Y-120962295D02*
X127923809Y-121076580D01*
X127923809Y-121076580D02*
X127847619Y-121152771D01*
X127847619Y-121152771D02*
X127771428Y-121190866D01*
X114626667Y-100613200D02*
X114769524Y-100660819D01*
X114769524Y-100660819D02*
X115007619Y-100660819D01*
X115007619Y-100660819D02*
X115102857Y-100613200D01*
X115102857Y-100613200D02*
X115150476Y-100565580D01*
X115150476Y-100565580D02*
X115198095Y-100470342D01*
X115198095Y-100470342D02*
X115198095Y-100375104D01*
X115198095Y-100375104D02*
X115150476Y-100279866D01*
X115150476Y-100279866D02*
X115102857Y-100232247D01*
X115102857Y-100232247D02*
X115007619Y-100184628D01*
X115007619Y-100184628D02*
X114817143Y-100137009D01*
X114817143Y-100137009D02*
X114721905Y-100089390D01*
X114721905Y-100089390D02*
X114674286Y-100041771D01*
X114674286Y-100041771D02*
X114626667Y-99946533D01*
X114626667Y-99946533D02*
X114626667Y-99851295D01*
X114626667Y-99851295D02*
X114674286Y-99756057D01*
X114674286Y-99756057D02*
X114721905Y-99708438D01*
X114721905Y-99708438D02*
X114817143Y-99660819D01*
X114817143Y-99660819D02*
X115055238Y-99660819D01*
X115055238Y-99660819D02*
X115198095Y-99708438D01*
X115531429Y-99660819D02*
X115769524Y-100660819D01*
X115769524Y-100660819D02*
X115960000Y-99946533D01*
X115960000Y-99946533D02*
X116150476Y-100660819D01*
X116150476Y-100660819D02*
X116388572Y-99660819D01*
X117293333Y-100660819D02*
X116721905Y-100660819D01*
X117007619Y-100660819D02*
X117007619Y-99660819D01*
X117007619Y-99660819D02*
X116912381Y-99803676D01*
X116912381Y-99803676D02*
X116817143Y-99898914D01*
X116817143Y-99898914D02*
X116721905Y-99946533D01*
D12*
%TO.C,D2*%
X138500000Y-120250000D02*
X138500000Y-125750000D01*
X138500000Y-120250000D02*
X145500000Y-120250000D01*
X138500000Y-125750000D02*
X145050000Y-125750000D01*
X139300000Y-123900000D02*
X139300000Y-122100000D01*
X144700000Y-123900000D02*
X144700000Y-122100000D01*
X145050000Y-125750000D02*
X145500000Y-125300000D01*
X145500000Y-125300000D02*
X145500000Y-120250000D01*
%TO.C,SW2*%
X108975000Y-121095000D02*
X122945000Y-121095000D01*
X108975000Y-135065000D02*
X108975000Y-121095000D01*
X122945000Y-121095000D02*
X122945000Y-135065000D01*
X122945000Y-135065000D02*
X108975000Y-135065000D01*
%TO.C,SW4*%
X150975000Y-121095000D02*
X164945000Y-121095000D01*
X150975000Y-135065000D02*
X150975000Y-121095000D01*
X164945000Y-121095000D02*
X164945000Y-135065000D01*
X164945000Y-135065000D02*
X150975000Y-135065000D01*
D13*
%TO.C,U1*%
X128100000Y-100000000D02*
X128100000Y-117000000D01*
X130100000Y-119000000D02*
X143900000Y-119000000D01*
X132500000Y-96575970D02*
X141500000Y-96575970D01*
X132500000Y-103929270D02*
X132500000Y-96575970D01*
X141500000Y-96575970D02*
X141500000Y-103929270D01*
X141500000Y-103929270D02*
X132500000Y-103929270D01*
X143900000Y-98000910D02*
X130100000Y-98000910D01*
X145900000Y-117000000D02*
X145900000Y-100000000D01*
D12*
X128100000Y-100000000D02*
G75*
G02*
X130100000Y-98000000I2044612J-44612D01*
G01*
X130100000Y-119000000D02*
G75*
G02*
X128100000Y-117000000I44857J2044857D01*
G01*
X143900000Y-98000000D02*
G75*
G02*
X145900000Y-100000000I-44610J-2044610D01*
G01*
X145900000Y-117000000D02*
G75*
G02*
X143900000Y-119000000I-2000000J0D01*
G01*
D14*
X126127000Y-99700000D02*
G75*
G02*
X125873000Y-99700000I-127000J0D01*
G01*
X125873000Y-99700000D02*
G75*
G02*
X126127000Y-99700000I127000J0D01*
G01*
D15*
X128112285Y-99938295D02*
X128115333Y-99889527D01*
X128119397Y-99840506D01*
X128112285Y-99938295D01*
X145887713Y-117070850D02*
X145884665Y-117119618D01*
X145880601Y-117168639D01*
X145875268Y-117217407D01*
X145868664Y-117266175D01*
X145861044Y-117314690D01*
X145852153Y-117362950D01*
X145842248Y-117410955D01*
X145889492Y-117021574D01*
X145887713Y-117070850D01*
D16*
%TO.C,J1*%
X118000000Y-149500000D02*
X118000000Y-161500000D01*
X118000000Y-161500000D02*
X156000000Y-161500000D01*
X121500000Y-149500000D02*
X121500000Y-161500000D01*
X151000000Y-149500000D02*
X151000000Y-161500000D01*
X156000000Y-149500000D02*
X118000000Y-149500000D01*
X156000000Y-161500000D02*
X156000000Y-149500000D01*
D12*
%TO.C,SW5*%
X129200000Y-134400000D02*
X129800000Y-134400000D01*
X129500000Y-134700000D02*
X129200000Y-134400000D01*
X129800000Y-134400000D02*
X129500000Y-134700000D01*
X130900000Y-132600000D02*
X130900000Y-144400000D01*
X135000000Y-132600000D02*
X130900000Y-132600000D01*
X135000000Y-144400000D02*
X130900000Y-144400000D01*
X136500000Y-138500000D02*
X137500000Y-138500000D01*
X137000000Y-138000000D02*
X137000000Y-139000000D01*
X139000000Y-132600000D02*
X143100000Y-132600000D01*
X143100000Y-132600000D02*
X143100000Y-135000000D01*
X143100000Y-137200000D02*
X143100000Y-139800000D01*
X143100000Y-142000000D02*
X143100000Y-144400000D01*
X143100000Y-144400000D02*
X139000000Y-144400000D01*
X140000000Y-138500000D02*
G75*
G02*
X134000000Y-138500000I-3000000J0D01*
G01*
X134000000Y-138500000D02*
G75*
G02*
X140000000Y-138500000I3000000J0D01*
G01*
%TO.C,SW3*%
X150975000Y-101095000D02*
X164945000Y-101095000D01*
X150975000Y-115065000D02*
X150975000Y-101095000D01*
X164945000Y-101095000D02*
X164945000Y-115065000D01*
X164945000Y-115065000D02*
X150975000Y-115065000D01*
%TO.C,D1*%
X128500000Y-120250000D02*
X128500000Y-125750000D01*
X128500000Y-120250000D02*
X135500000Y-120250000D01*
X128500000Y-125750000D02*
X135050000Y-125750000D01*
X129300000Y-123900000D02*
X129300000Y-122100000D01*
X134700000Y-123900000D02*
X134700000Y-122100000D01*
X135050000Y-125750000D02*
X135500000Y-125300000D01*
X135500000Y-125300000D02*
X135500000Y-120250000D01*
%TO.C,SW1*%
X108975000Y-101095000D02*
X122945000Y-101095000D01*
X108975000Y-115065000D02*
X108975000Y-101095000D01*
X122945000Y-101095000D02*
X122945000Y-115065000D01*
X122945000Y-115065000D02*
X108975000Y-115065000D01*
%TD*%
M02*
