%TF.GenerationSoftware,KiCad,Pcbnew,9.0.7*%
%TF.CreationDate,2026-03-19T12:04:40+08:00*%
%TF.ProjectId,hackpaderdelta,6861636b-7061-4646-9572-64656c74612e,rev?*%
%TF.SameCoordinates,Original*%
%TF.FileFunction,Soldermask,Bot*%
%TF.FilePolarity,Negative*%
%FSLAX46Y46*%
G04 Gerber Fmt 4.6, Leading zero omitted, Abs format (unit mm)*
G04 Created by KiCad (PCBNEW 9.0.7) date 2026-03-19 12:04:40*
%MOMM*%
%LPD*%
G01*
G04 APERTURE LIST*
%ADD10C,1.700000*%
%ADD11C,4.000000*%
%ADD12C,2.200000*%
%ADD13R,3.500000X1.700000*%
%ADD14O,3.600000X1.700000*%
%ADD15O,3.700000X1.700000*%
%ADD16R,1.700000X1.700000*%
%ADD17O,1.700000X1.700000*%
%ADD18R,2.000000X2.000000*%
%ADD19C,2.000000*%
%ADD20C,3.200000*%
G04 APERTURE END LIST*
D10*
%TO.C,SW2*%
X110880000Y-128080000D03*
D11*
X115960000Y-128080000D03*
D10*
X121040000Y-128080000D03*
D12*
X118500000Y-123000000D03*
X112150000Y-125540000D03*
%TD*%
D10*
%TO.C,SW4*%
X152880000Y-128080000D03*
D11*
X157960000Y-128080000D03*
D10*
X163040000Y-128080000D03*
D12*
X160500000Y-123000000D03*
X154150000Y-125540000D03*
%TD*%
D13*
%TO.C,U1*%
X128375000Y-100880000D03*
D14*
X128375000Y-103420000D03*
X128375000Y-105960000D03*
X128375000Y-108500000D03*
X128375000Y-111040000D03*
X128375000Y-113580000D03*
X128375000Y-116120000D03*
X145625000Y-116120000D03*
X145625000Y-113580000D03*
X145625000Y-111040000D03*
D15*
X145625000Y-108500000D03*
X145625000Y-105960000D03*
X145625000Y-103420000D03*
X145625000Y-100880000D03*
%TD*%
D16*
%TO.C,J1*%
X154500000Y-151690000D03*
D17*
X154500000Y-154230000D03*
X154500000Y-156770000D03*
X154500000Y-159310000D03*
%TD*%
D18*
%TO.C,SW5*%
X129500000Y-136000000D03*
D19*
X129500000Y-141000000D03*
X129500000Y-138500000D03*
D20*
X137000000Y-132900000D03*
X137000000Y-144100000D03*
D19*
X144000000Y-141000000D03*
X144000000Y-136000000D03*
%TD*%
D10*
%TO.C,SW3*%
X152880000Y-108080000D03*
D11*
X157960000Y-108080000D03*
D10*
X163040000Y-108080000D03*
D12*
X160500000Y-103000000D03*
X154150000Y-105540000D03*
%TD*%
D10*
%TO.C,SW1*%
X110880000Y-108080000D03*
D11*
X115960000Y-108080000D03*
D10*
X121040000Y-108080000D03*
D12*
X118500000Y-103000000D03*
X112150000Y-105540000D03*
%TD*%
M02*
