%TF.GenerationSoftware,KiCad,Pcbnew,9.0.7*%
%TF.CreationDate,2026-03-19T12:04:40+08:00*%
%TF.ProjectId,hackpaderdelta,6861636b-7061-4646-9572-64656c74612e,rev?*%
%TF.SameCoordinates,Original*%
%TF.FileFunction,Soldermask,Top*%
%TF.FilePolarity,Negative*%
%FSLAX46Y46*%
G04 Gerber Fmt 4.6, Leading zero omitted, Abs format (unit mm)*
G04 Created by KiCad (PCBNEW 9.0.7) date 2026-03-19 12:04:40*
%MOMM*%
%LPD*%
G01*
G04 APERTURE LIST*
G04 Aperture macros list*
%AMRoundRect*
0 Rectangle with rounded corners*
0 $1 Rounding radius*
0 $2 $3 $4 $5 $6 $7 $8 $9 X,Y pos of 4 corners*
0 Add a 4 corners polygon primitive as box body*
4,1,4,$2,$3,$4,$5,$6,$7,$8,$9,$2,$3,0*
0 Add four circle primitives for the rounded corners*
1,1,$1+$1,$2,$3*
1,1,$1+$1,$4,$5*
1,1,$1+$1,$6,$7*
1,1,$1+$1,$8,$9*
0 Add four rect primitives between the rounded corners*
20,1,$1+$1,$2,$3,$4,$5,0*
20,1,$1+$1,$4,$5,$6,$7,0*
20,1,$1+$1,$6,$7,$8,$9,0*
20,1,$1+$1,$8,$9,$2,$3,0*%
G04 Aperture macros list end*
%ADD10RoundRect,0.090000X-0.660000X-0.360000X0.660000X-0.360000X0.660000X0.360000X-0.660000X0.360000X0*%
%ADD11C,1.700000*%
%ADD12C,4.000000*%
%ADD13C,2.200000*%
%ADD14R,3.500000X1.700000*%
%ADD15O,3.600000X1.700000*%
%ADD16O,3.700000X1.700000*%
%ADD17R,1.700000X1.700000*%
%ADD18O,1.700000X1.700000*%
%ADD19R,2.000000X2.000000*%
%ADD20C,2.000000*%
%ADD21C,3.200000*%
G04 APERTURE END LIST*
D10*
%TO.C,D2*%
X139550000Y-121350000D03*
X139550000Y-124650000D03*
X144450000Y-124650000D03*
X144450000Y-121350000D03*
%TD*%
D11*
%TO.C,SW2*%
X110880000Y-128080000D03*
D12*
X115960000Y-128080000D03*
D11*
X121040000Y-128080000D03*
D13*
X118500000Y-123000000D03*
X112150000Y-125540000D03*
%TD*%
D11*
%TO.C,SW4*%
X152880000Y-128080000D03*
D12*
X157960000Y-128080000D03*
D11*
X163040000Y-128080000D03*
D13*
X160500000Y-123000000D03*
X154150000Y-125540000D03*
%TD*%
D14*
%TO.C,U1*%
X128375000Y-100880000D03*
D15*
X128375000Y-103420000D03*
X128375000Y-105960000D03*
X128375000Y-108500000D03*
X128375000Y-111040000D03*
X128375000Y-113580000D03*
X128375000Y-116120000D03*
X145625000Y-116120000D03*
X145625000Y-113580000D03*
X145625000Y-111040000D03*
D16*
X145625000Y-108500000D03*
X145625000Y-105960000D03*
X145625000Y-103420000D03*
X145625000Y-100880000D03*
%TD*%
D17*
%TO.C,J1*%
X154500000Y-151690000D03*
D18*
X154500000Y-154230000D03*
X154500000Y-156770000D03*
X154500000Y-159310000D03*
%TD*%
D19*
%TO.C,SW5*%
X129500000Y-136000000D03*
D20*
X129500000Y-141000000D03*
X129500000Y-138500000D03*
D21*
X137000000Y-132900000D03*
X137000000Y-144100000D03*
D20*
X144000000Y-141000000D03*
X144000000Y-136000000D03*
%TD*%
D11*
%TO.C,SW3*%
X152880000Y-108080000D03*
D12*
X157960000Y-108080000D03*
D11*
X163040000Y-108080000D03*
D13*
X160500000Y-103000000D03*
X154150000Y-105540000D03*
%TD*%
D10*
%TO.C,D1*%
X129550000Y-121350000D03*
X129550000Y-124650000D03*
X134450000Y-124650000D03*
X134450000Y-121350000D03*
%TD*%
D11*
%TO.C,SW1*%
X110880000Y-108080000D03*
D12*
X115960000Y-108080000D03*
D11*
X121040000Y-108080000D03*
D13*
X118500000Y-103000000D03*
X112150000Y-105540000D03*
%TD*%
M02*
