%TF.GenerationSoftware,KiCad,Pcbnew,9.0.7*%
%TF.CreationDate,2026-03-20T10:46:38+08:00*%
%TF.ProjectId,hackpaderdelta,6861636b-7061-4646-9572-64656c74612e,rev?*%
%TF.SameCoordinates,Original*%
%TF.FileFunction,Profile,NP*%
%FSLAX46Y46*%
G04 Gerber Fmt 4.6, Leading zero omitted, Abs format (unit mm)*
G04 Created by KiCad (PCBNEW 9.0.7) date 2026-03-20 10:46:38*
%MOMM*%
%LPD*%
G01*
G04 APERTURE LIST*
%TA.AperFunction,Profile*%
%ADD10C,0.050000*%
%TD*%
%TA.AperFunction,Profile*%
%ADD11C,0.100000*%
%TD*%
G04 APERTURE END LIST*
D10*
X102460000Y-97080000D02*
X171460000Y-97080000D01*
X171460000Y-163080000D01*
X102460000Y-163080000D01*
X102460000Y-97080000D01*
D11*
%TO.C,D3*%
X139800002Y-123600000D02*
X139800002Y-122194316D01*
X140705549Y-121397159D02*
X142294454Y-121397159D01*
X142294453Y-124397158D02*
X140705549Y-124397158D01*
X143200000Y-122194316D02*
X143200000Y-123600000D01*
X139750517Y-121977438D02*
G75*
G02*
X139800002Y-122194316I-450505J-216876D01*
G01*
X139750517Y-121977438D02*
G75*
G02*
X140453290Y-121328859I450515J216878D01*
G01*
X139800002Y-123600001D02*
G75*
G02*
X139750517Y-123816878I-499990J-1D01*
G01*
X140453290Y-124465455D02*
G75*
G02*
X139750517Y-123816878I-252258J431700D01*
G01*
X140453291Y-124465457D02*
G75*
G02*
X140705549Y-124397158I252261J-431710D01*
G01*
X140705548Y-121397158D02*
G75*
G02*
X140453290Y-121328859I3J500009D01*
G01*
X142294453Y-124397158D02*
G75*
G02*
X142546712Y-124465457I-3J-500012D01*
G01*
X142546712Y-121328860D02*
G75*
G02*
X142294454Y-121397160I-252262J431710D01*
G01*
X142546712Y-121328860D02*
G75*
G02*
X143249484Y-121977438I252258J-431700D01*
G01*
X143200000Y-122194315D02*
G75*
G02*
X143249479Y-121977435I500000J15D01*
G01*
X143249485Y-123816877D02*
G75*
G02*
X142546712Y-124465457I-450514J-216880D01*
G01*
X143249485Y-123816878D02*
G75*
G02*
X143200000Y-123600000I450515J216878D01*
G01*
%TO.C,D1*%
X130300002Y-123600000D02*
X130300002Y-122194316D01*
X131205549Y-121397159D02*
X132794454Y-121397159D01*
X132794453Y-124397158D02*
X131205549Y-124397158D01*
X133700000Y-122194316D02*
X133700000Y-123600000D01*
X130250517Y-121977438D02*
G75*
G02*
X130300002Y-122194316I-450505J-216876D01*
G01*
X130250517Y-121977438D02*
G75*
G02*
X130953290Y-121328859I450515J216878D01*
G01*
X130300002Y-123600001D02*
G75*
G02*
X130250517Y-123816878I-499990J-1D01*
G01*
X130953290Y-124465455D02*
G75*
G02*
X130250517Y-123816878I-252258J431700D01*
G01*
X130953291Y-124465457D02*
G75*
G02*
X131205549Y-124397158I252261J-431710D01*
G01*
X131205548Y-121397158D02*
G75*
G02*
X130953290Y-121328859I3J500009D01*
G01*
X132794453Y-124397158D02*
G75*
G02*
X133046712Y-124465457I-3J-500012D01*
G01*
X133046712Y-121328860D02*
G75*
G02*
X132794454Y-121397160I-252262J431710D01*
G01*
X133046712Y-121328860D02*
G75*
G02*
X133749484Y-121977438I252258J-431700D01*
G01*
X133700000Y-122194315D02*
G75*
G02*
X133749479Y-121977435I500000J15D01*
G01*
X133749485Y-123816877D02*
G75*
G02*
X133046712Y-124465457I-450514J-216880D01*
G01*
X133749485Y-123816878D02*
G75*
G02*
X133700000Y-123600000I450515J216878D01*
G01*
%TD*%
M02*
