%TF.GenerationSoftware,KiCad,Pcbnew,9.0.7*%
%TF.CreationDate,2026-03-18T17:46:16+08:00*%
%TF.ProjectId,hackpaderdelta,6861636b-7061-4646-9572-64656c74612e,rev?*%
%TF.SameCoordinates,Original*%
%TF.FileFunction,Copper,L2,Bot*%
%TF.FilePolarity,Positive*%
%FSLAX46Y46*%
G04 Gerber Fmt 4.6, Leading zero omitted, Abs format (unit mm)*
G04 Created by KiCad (PCBNEW 9.0.7) date 2026-03-18 17:46:16*
%MOMM*%
%LPD*%
G01*
G04 APERTURE LIST*
%TA.AperFunction,ComponentPad*%
%ADD10C,2.200000*%
%TD*%
%TA.AperFunction,ComponentPad*%
%ADD11R,3.500000X1.700000*%
%TD*%
%TA.AperFunction,ComponentPad*%
%ADD12O,3.600000X1.700000*%
%TD*%
%TA.AperFunction,ComponentPad*%
%ADD13O,3.700000X1.700000*%
%TD*%
%TA.AperFunction,ComponentPad*%
%ADD14R,1.800000X1.800000*%
%TD*%
%TA.AperFunction,ComponentPad*%
%ADD15C,1.800000*%
%TD*%
%TA.AperFunction,Conductor*%
%ADD16C,0.200000*%
%TD*%
G04 APERTURE END LIST*
D10*
%TO.P,SW2,1,1*%
%TO.N,Net-(U1-PA4_A1_D1)*%
X119540000Y-171420000D03*
%TO.P,SW2,2,2*%
%TO.N,GND*%
X113190000Y-173960000D03*
%TD*%
%TO.P,SW4,1,1*%
%TO.N,Net-(U1-PA11_A3_D3)*%
X161540000Y-171420000D03*
%TO.P,SW4,2,2*%
%TO.N,GND*%
X155190000Y-173960000D03*
%TD*%
D11*
%TO.P,U1,1,PA02_A0_D0*%
%TO.N,Net-(U1-PA02_A0_D0)*%
X129415000Y-149300000D03*
D12*
%TO.P,U1,2,PA4_A1_D1*%
%TO.N,Net-(U1-PA4_A1_D1)*%
X129415000Y-151840000D03*
%TO.P,U1,3,PA10_A2_D2*%
%TO.N,Net-(U1-PA10_A2_D2)*%
X129415000Y-154380000D03*
%TO.P,U1,4,PA11_A3_D3*%
%TO.N,Net-(U1-PA11_A3_D3)*%
X129415000Y-156920000D03*
%TO.P,U1,5,PA8_A4_D4_SDA*%
%TO.N,unconnected-(U1-PA8_A4_D4_SDA-Pad5)*%
X129415000Y-159460000D03*
%TO.P,U1,6,PA9_A5_D5_SCL*%
%TO.N,unconnected-(U1-PA9_A5_D5_SCL-Pad6)*%
X129415000Y-162000000D03*
%TO.P,U1,7,PB08_A6_D6_TX*%
%TO.N,unconnected-(U1-PB08_A6_D6_TX-Pad7)*%
X129415000Y-164540000D03*
%TO.P,U1,8,PB09_A7_D7_RX*%
%TO.N,unconnected-(U1-PB09_A7_D7_RX-Pad8)*%
X146665000Y-164540000D03*
%TO.P,U1,9,PA7_A8_D8_SCK*%
%TO.N,unconnected-(U1-PA7_A8_D8_SCK-Pad9)*%
X146665000Y-162000000D03*
%TO.P,U1,10,PA5_A9_D9_MISO*%
%TO.N,unconnected-(U1-PA5_A9_D9_MISO-Pad10)*%
X146665000Y-159460000D03*
D13*
%TO.P,U1,11,PA6_A10_D10_MOSI*%
%TO.N,unconnected-(U1-PA6_A10_D10_MOSI-Pad11)*%
X146665000Y-156920000D03*
%TO.P,U1,12,3V3*%
%TO.N,unconnected-(U1-3V3-Pad12)*%
X146665000Y-154380000D03*
%TO.P,U1,13,GND*%
%TO.N,GND*%
X146665000Y-151840000D03*
%TO.P,U1,14,5V*%
%TO.N,Net-(D1-A)*%
X146665000Y-149300000D03*
%TD*%
D14*
%TO.P,D1,1,K*%
%TO.N,GND*%
X143000000Y-171420000D03*
D15*
%TO.P,D1,2,A*%
%TO.N,Net-(D1-A)*%
X145540000Y-171420000D03*
%TD*%
D10*
%TO.P,SW3,1,1*%
%TO.N,Net-(U1-PA10_A2_D2)*%
X161540000Y-151420000D03*
%TO.P,SW3,2,2*%
%TO.N,GND*%
X155190000Y-153960000D03*
%TD*%
D14*
%TO.P,D2,1,K*%
%TO.N,GND*%
X130040000Y-171420000D03*
D15*
%TO.P,D2,2,A*%
%TO.N,Net-(D1-A)*%
X132580000Y-171420000D03*
%TD*%
D10*
%TO.P,SW1,1,1*%
%TO.N,Net-(U1-PA02_A0_D0)*%
X119540000Y-151420000D03*
%TO.P,SW1,2,2*%
%TO.N,GND*%
X113190000Y-153960000D03*
%TD*%
D16*
%TO.N,Net-(U1-PA02_A0_D0)*%
X119540000Y-151420000D02*
X121660000Y-149300000D01*
X121660000Y-149300000D02*
X130415000Y-149300000D01*
%TO.N,GND*%
X113190000Y-173960000D02*
X123545000Y-173960000D01*
X130040000Y-167465000D02*
X145665000Y-151840000D01*
X123545000Y-173960000D02*
X145665000Y-151840000D01*
X143000000Y-171420000D02*
X143540000Y-170880000D01*
X113190000Y-153960000D02*
X113921000Y-153229000D01*
X143540000Y-153965000D02*
X145665000Y-151840000D01*
X113921000Y-153229000D02*
X144276000Y-153229000D01*
X130040000Y-171420000D02*
X130040000Y-167465000D01*
X144276000Y-153229000D02*
X145665000Y-151840000D01*
X143540000Y-170880000D02*
X143540000Y-153965000D01*
%TO.N,Net-(U1-PA4_A1_D1)*%
X119540000Y-171420000D02*
X113770314Y-165650314D01*
X113770314Y-156521628D02*
X111789000Y-154540314D01*
X113770314Y-152559000D02*
X114039314Y-152828000D01*
X111789000Y-154540314D02*
X111789000Y-153379686D01*
X129427000Y-152828000D02*
X130415000Y-151840000D01*
X111789000Y-153379686D02*
X112609686Y-152559000D01*
X113770314Y-165650314D02*
X113770314Y-156521628D01*
X114039314Y-152828000D02*
X129427000Y-152828000D01*
X112609686Y-152559000D02*
X113770314Y-152559000D01*
%TD*%
M02*
