%TF.GenerationSoftware,KiCad,Pcbnew,9.0.7*%
%TF.CreationDate,2026-03-18T17:46:16+08:00*%
%TF.ProjectId,hackpaderdelta,6861636b-7061-4646-9572-64656c74612e,rev?*%
%TF.SameCoordinates,Original*%
%TF.FileFunction,Legend,Top*%
%TF.FilePolarity,Positive*%
%FSLAX46Y46*%
G04 Gerber Fmt 4.6, Leading zero omitted, Abs format (unit mm)*
G04 Created by KiCad (PCBNEW 9.0.7) date 2026-03-18 17:46:16*
%MOMM*%
%LPD*%
G01*
G04 APERTURE LIST*
%ADD10C,0.150000*%
%ADD11C,0.101600*%
%ADD12C,0.120000*%
%ADD13C,0.127000*%
%ADD14C,0.254000*%
%ADD15C,0.025400*%
G04 APERTURE END LIST*
D10*
X115666667Y-169033200D02*
X115809524Y-169080819D01*
X115809524Y-169080819D02*
X116047619Y-169080819D01*
X116047619Y-169080819D02*
X116142857Y-169033200D01*
X116142857Y-169033200D02*
X116190476Y-168985580D01*
X116190476Y-168985580D02*
X116238095Y-168890342D01*
X116238095Y-168890342D02*
X116238095Y-168795104D01*
X116238095Y-168795104D02*
X116190476Y-168699866D01*
X116190476Y-168699866D02*
X116142857Y-168652247D01*
X116142857Y-168652247D02*
X116047619Y-168604628D01*
X116047619Y-168604628D02*
X115857143Y-168557009D01*
X115857143Y-168557009D02*
X115761905Y-168509390D01*
X115761905Y-168509390D02*
X115714286Y-168461771D01*
X115714286Y-168461771D02*
X115666667Y-168366533D01*
X115666667Y-168366533D02*
X115666667Y-168271295D01*
X115666667Y-168271295D02*
X115714286Y-168176057D01*
X115714286Y-168176057D02*
X115761905Y-168128438D01*
X115761905Y-168128438D02*
X115857143Y-168080819D01*
X115857143Y-168080819D02*
X116095238Y-168080819D01*
X116095238Y-168080819D02*
X116238095Y-168128438D01*
X116571429Y-168080819D02*
X116809524Y-169080819D01*
X116809524Y-169080819D02*
X117000000Y-168366533D01*
X117000000Y-168366533D02*
X117190476Y-169080819D01*
X117190476Y-169080819D02*
X117428572Y-168080819D01*
X117761905Y-168176057D02*
X117809524Y-168128438D01*
X117809524Y-168128438D02*
X117904762Y-168080819D01*
X117904762Y-168080819D02*
X118142857Y-168080819D01*
X118142857Y-168080819D02*
X118238095Y-168128438D01*
X118238095Y-168128438D02*
X118285714Y-168176057D01*
X118285714Y-168176057D02*
X118333333Y-168271295D01*
X118333333Y-168271295D02*
X118333333Y-168366533D01*
X118333333Y-168366533D02*
X118285714Y-168509390D01*
X118285714Y-168509390D02*
X117714286Y-169080819D01*
X117714286Y-169080819D02*
X118333333Y-169080819D01*
X157666667Y-169033200D02*
X157809524Y-169080819D01*
X157809524Y-169080819D02*
X158047619Y-169080819D01*
X158047619Y-169080819D02*
X158142857Y-169033200D01*
X158142857Y-169033200D02*
X158190476Y-168985580D01*
X158190476Y-168985580D02*
X158238095Y-168890342D01*
X158238095Y-168890342D02*
X158238095Y-168795104D01*
X158238095Y-168795104D02*
X158190476Y-168699866D01*
X158190476Y-168699866D02*
X158142857Y-168652247D01*
X158142857Y-168652247D02*
X158047619Y-168604628D01*
X158047619Y-168604628D02*
X157857143Y-168557009D01*
X157857143Y-168557009D02*
X157761905Y-168509390D01*
X157761905Y-168509390D02*
X157714286Y-168461771D01*
X157714286Y-168461771D02*
X157666667Y-168366533D01*
X157666667Y-168366533D02*
X157666667Y-168271295D01*
X157666667Y-168271295D02*
X157714286Y-168176057D01*
X157714286Y-168176057D02*
X157761905Y-168128438D01*
X157761905Y-168128438D02*
X157857143Y-168080819D01*
X157857143Y-168080819D02*
X158095238Y-168080819D01*
X158095238Y-168080819D02*
X158238095Y-168128438D01*
X158571429Y-168080819D02*
X158809524Y-169080819D01*
X158809524Y-169080819D02*
X159000000Y-168366533D01*
X159000000Y-168366533D02*
X159190476Y-169080819D01*
X159190476Y-169080819D02*
X159428572Y-168080819D01*
X160238095Y-168414152D02*
X160238095Y-169080819D01*
X160000000Y-168033200D02*
X159761905Y-168747485D01*
X159761905Y-168747485D02*
X160380952Y-168747485D01*
D11*
X137362666Y-158976985D02*
X137362666Y-159696652D01*
X137362666Y-159696652D02*
X137405000Y-159781318D01*
X137405000Y-159781318D02*
X137447333Y-159823652D01*
X137447333Y-159823652D02*
X137532000Y-159865985D01*
X137532000Y-159865985D02*
X137701333Y-159865985D01*
X137701333Y-159865985D02*
X137786000Y-159823652D01*
X137786000Y-159823652D02*
X137828333Y-159781318D01*
X137828333Y-159781318D02*
X137870666Y-159696652D01*
X137870666Y-159696652D02*
X137870666Y-158976985D01*
X138759666Y-159865985D02*
X138251666Y-159865985D01*
X138505666Y-159865985D02*
X138505666Y-158976985D01*
X138505666Y-158976985D02*
X138420999Y-159103985D01*
X138420999Y-159103985D02*
X138336333Y-159188652D01*
X138336333Y-159188652D02*
X138251666Y-159230985D01*
D10*
X136516191Y-156874819D02*
X137182857Y-157874819D01*
X137182857Y-156874819D02*
X136516191Y-157874819D01*
X137563810Y-157874819D02*
X137563810Y-156874819D01*
X137992381Y-157589104D02*
X138468571Y-157589104D01*
X137897143Y-157874819D02*
X138230476Y-156874819D01*
X138230476Y-156874819D02*
X138563809Y-157874819D01*
X139087619Y-156874819D02*
X139278095Y-156874819D01*
X139278095Y-156874819D02*
X139373333Y-156922438D01*
X139373333Y-156922438D02*
X139468571Y-157017676D01*
X139468571Y-157017676D02*
X139516190Y-157208152D01*
X139516190Y-157208152D02*
X139516190Y-157541485D01*
X139516190Y-157541485D02*
X139468571Y-157731961D01*
X139468571Y-157731961D02*
X139373333Y-157827200D01*
X139373333Y-157827200D02*
X139278095Y-157874819D01*
X139278095Y-157874819D02*
X139087619Y-157874819D01*
X139087619Y-157874819D02*
X138992381Y-157827200D01*
X138992381Y-157827200D02*
X138897143Y-157731961D01*
X138897143Y-157731961D02*
X138849524Y-157541485D01*
X138849524Y-157541485D02*
X138849524Y-157208152D01*
X138849524Y-157208152D02*
X138897143Y-157017676D01*
X138897143Y-157017676D02*
X138992381Y-156922438D01*
X138992381Y-156922438D02*
X139087619Y-156874819D01*
X133278095Y-155827200D02*
X133420952Y-155874819D01*
X133420952Y-155874819D02*
X133659047Y-155874819D01*
X133659047Y-155874819D02*
X133754285Y-155827200D01*
X133754285Y-155827200D02*
X133801904Y-155779580D01*
X133801904Y-155779580D02*
X133849523Y-155684342D01*
X133849523Y-155684342D02*
X133849523Y-155589104D01*
X133849523Y-155589104D02*
X133801904Y-155493866D01*
X133801904Y-155493866D02*
X133754285Y-155446247D01*
X133754285Y-155446247D02*
X133659047Y-155398628D01*
X133659047Y-155398628D02*
X133468571Y-155351009D01*
X133468571Y-155351009D02*
X133373333Y-155303390D01*
X133373333Y-155303390D02*
X133325714Y-155255771D01*
X133325714Y-155255771D02*
X133278095Y-155160533D01*
X133278095Y-155160533D02*
X133278095Y-155065295D01*
X133278095Y-155065295D02*
X133325714Y-154970057D01*
X133325714Y-154970057D02*
X133373333Y-154922438D01*
X133373333Y-154922438D02*
X133468571Y-154874819D01*
X133468571Y-154874819D02*
X133706666Y-154874819D01*
X133706666Y-154874819D02*
X133849523Y-154922438D01*
X134659047Y-155827200D02*
X134563809Y-155874819D01*
X134563809Y-155874819D02*
X134373333Y-155874819D01*
X134373333Y-155874819D02*
X134278095Y-155827200D01*
X134278095Y-155827200D02*
X134230476Y-155731961D01*
X134230476Y-155731961D02*
X134230476Y-155351009D01*
X134230476Y-155351009D02*
X134278095Y-155255771D01*
X134278095Y-155255771D02*
X134373333Y-155208152D01*
X134373333Y-155208152D02*
X134563809Y-155208152D01*
X134563809Y-155208152D02*
X134659047Y-155255771D01*
X134659047Y-155255771D02*
X134706666Y-155351009D01*
X134706666Y-155351009D02*
X134706666Y-155446247D01*
X134706666Y-155446247D02*
X134230476Y-155541485D01*
X135516190Y-155827200D02*
X135420952Y-155874819D01*
X135420952Y-155874819D02*
X135230476Y-155874819D01*
X135230476Y-155874819D02*
X135135238Y-155827200D01*
X135135238Y-155827200D02*
X135087619Y-155731961D01*
X135087619Y-155731961D02*
X135087619Y-155351009D01*
X135087619Y-155351009D02*
X135135238Y-155255771D01*
X135135238Y-155255771D02*
X135230476Y-155208152D01*
X135230476Y-155208152D02*
X135420952Y-155208152D01*
X135420952Y-155208152D02*
X135516190Y-155255771D01*
X135516190Y-155255771D02*
X135563809Y-155351009D01*
X135563809Y-155351009D02*
X135563809Y-155446247D01*
X135563809Y-155446247D02*
X135087619Y-155541485D01*
X136373333Y-155827200D02*
X136278095Y-155874819D01*
X136278095Y-155874819D02*
X136087619Y-155874819D01*
X136087619Y-155874819D02*
X135992381Y-155827200D01*
X135992381Y-155827200D02*
X135944762Y-155731961D01*
X135944762Y-155731961D02*
X135944762Y-155351009D01*
X135944762Y-155351009D02*
X135992381Y-155255771D01*
X135992381Y-155255771D02*
X136087619Y-155208152D01*
X136087619Y-155208152D02*
X136278095Y-155208152D01*
X136278095Y-155208152D02*
X136373333Y-155255771D01*
X136373333Y-155255771D02*
X136420952Y-155351009D01*
X136420952Y-155351009D02*
X136420952Y-155446247D01*
X136420952Y-155446247D02*
X135944762Y-155541485D01*
X137278095Y-155874819D02*
X137278095Y-154874819D01*
X137278095Y-155827200D02*
X137182857Y-155874819D01*
X137182857Y-155874819D02*
X136992381Y-155874819D01*
X136992381Y-155874819D02*
X136897143Y-155827200D01*
X136897143Y-155827200D02*
X136849524Y-155779580D01*
X136849524Y-155779580D02*
X136801905Y-155684342D01*
X136801905Y-155684342D02*
X136801905Y-155398628D01*
X136801905Y-155398628D02*
X136849524Y-155303390D01*
X136849524Y-155303390D02*
X136897143Y-155255771D01*
X136897143Y-155255771D02*
X136992381Y-155208152D01*
X136992381Y-155208152D02*
X137182857Y-155208152D01*
X137182857Y-155208152D02*
X137278095Y-155255771D01*
X138468572Y-155827200D02*
X138611429Y-155874819D01*
X138611429Y-155874819D02*
X138849524Y-155874819D01*
X138849524Y-155874819D02*
X138944762Y-155827200D01*
X138944762Y-155827200D02*
X138992381Y-155779580D01*
X138992381Y-155779580D02*
X139040000Y-155684342D01*
X139040000Y-155684342D02*
X139040000Y-155589104D01*
X139040000Y-155589104D02*
X138992381Y-155493866D01*
X138992381Y-155493866D02*
X138944762Y-155446247D01*
X138944762Y-155446247D02*
X138849524Y-155398628D01*
X138849524Y-155398628D02*
X138659048Y-155351009D01*
X138659048Y-155351009D02*
X138563810Y-155303390D01*
X138563810Y-155303390D02*
X138516191Y-155255771D01*
X138516191Y-155255771D02*
X138468572Y-155160533D01*
X138468572Y-155160533D02*
X138468572Y-155065295D01*
X138468572Y-155065295D02*
X138516191Y-154970057D01*
X138516191Y-154970057D02*
X138563810Y-154922438D01*
X138563810Y-154922438D02*
X138659048Y-154874819D01*
X138659048Y-154874819D02*
X138897143Y-154874819D01*
X138897143Y-154874819D02*
X139040000Y-154922438D01*
X139325715Y-155208152D02*
X139706667Y-155208152D01*
X139468572Y-154874819D02*
X139468572Y-155731961D01*
X139468572Y-155731961D02*
X139516191Y-155827200D01*
X139516191Y-155827200D02*
X139611429Y-155874819D01*
X139611429Y-155874819D02*
X139706667Y-155874819D01*
X140468572Y-155208152D02*
X140468572Y-155874819D01*
X140040001Y-155208152D02*
X140040001Y-155731961D01*
X140040001Y-155731961D02*
X140087620Y-155827200D01*
X140087620Y-155827200D02*
X140182858Y-155874819D01*
X140182858Y-155874819D02*
X140325715Y-155874819D01*
X140325715Y-155874819D02*
X140420953Y-155827200D01*
X140420953Y-155827200D02*
X140468572Y-155779580D01*
X141373334Y-155874819D02*
X141373334Y-154874819D01*
X141373334Y-155827200D02*
X141278096Y-155874819D01*
X141278096Y-155874819D02*
X141087620Y-155874819D01*
X141087620Y-155874819D02*
X140992382Y-155827200D01*
X140992382Y-155827200D02*
X140944763Y-155779580D01*
X140944763Y-155779580D02*
X140897144Y-155684342D01*
X140897144Y-155684342D02*
X140897144Y-155398628D01*
X140897144Y-155398628D02*
X140944763Y-155303390D01*
X140944763Y-155303390D02*
X140992382Y-155255771D01*
X140992382Y-155255771D02*
X141087620Y-155208152D01*
X141087620Y-155208152D02*
X141278096Y-155208152D01*
X141278096Y-155208152D02*
X141373334Y-155255771D01*
X141849525Y-155874819D02*
X141849525Y-155208152D01*
X141849525Y-154874819D02*
X141801906Y-154922438D01*
X141801906Y-154922438D02*
X141849525Y-154970057D01*
X141849525Y-154970057D02*
X141897144Y-154922438D01*
X141897144Y-154922438D02*
X141849525Y-154874819D01*
X141849525Y-154874819D02*
X141849525Y-154970057D01*
X142468572Y-155874819D02*
X142373334Y-155827200D01*
X142373334Y-155827200D02*
X142325715Y-155779580D01*
X142325715Y-155779580D02*
X142278096Y-155684342D01*
X142278096Y-155684342D02*
X142278096Y-155398628D01*
X142278096Y-155398628D02*
X142325715Y-155303390D01*
X142325715Y-155303390D02*
X142373334Y-155255771D01*
X142373334Y-155255771D02*
X142468572Y-155208152D01*
X142468572Y-155208152D02*
X142611429Y-155208152D01*
X142611429Y-155208152D02*
X142706667Y-155255771D01*
X142706667Y-155255771D02*
X142754286Y-155303390D01*
X142754286Y-155303390D02*
X142801905Y-155398628D01*
X142801905Y-155398628D02*
X142801905Y-155684342D01*
X142801905Y-155684342D02*
X142754286Y-155779580D01*
X142754286Y-155779580D02*
X142706667Y-155827200D01*
X142706667Y-155827200D02*
X142611429Y-155874819D01*
X142611429Y-155874819D02*
X142468572Y-155874819D01*
X143531905Y-168914819D02*
X143531905Y-167914819D01*
X143531905Y-167914819D02*
X143770000Y-167914819D01*
X143770000Y-167914819D02*
X143912857Y-167962438D01*
X143912857Y-167962438D02*
X144008095Y-168057676D01*
X144008095Y-168057676D02*
X144055714Y-168152914D01*
X144055714Y-168152914D02*
X144103333Y-168343390D01*
X144103333Y-168343390D02*
X144103333Y-168486247D01*
X144103333Y-168486247D02*
X144055714Y-168676723D01*
X144055714Y-168676723D02*
X144008095Y-168771961D01*
X144008095Y-168771961D02*
X143912857Y-168867200D01*
X143912857Y-168867200D02*
X143770000Y-168914819D01*
X143770000Y-168914819D02*
X143531905Y-168914819D01*
X145055714Y-168914819D02*
X144484286Y-168914819D01*
X144770000Y-168914819D02*
X144770000Y-167914819D01*
X144770000Y-167914819D02*
X144674762Y-168057676D01*
X144674762Y-168057676D02*
X144579524Y-168152914D01*
X144579524Y-168152914D02*
X144484286Y-168200533D01*
X157666667Y-149033200D02*
X157809524Y-149080819D01*
X157809524Y-149080819D02*
X158047619Y-149080819D01*
X158047619Y-149080819D02*
X158142857Y-149033200D01*
X158142857Y-149033200D02*
X158190476Y-148985580D01*
X158190476Y-148985580D02*
X158238095Y-148890342D01*
X158238095Y-148890342D02*
X158238095Y-148795104D01*
X158238095Y-148795104D02*
X158190476Y-148699866D01*
X158190476Y-148699866D02*
X158142857Y-148652247D01*
X158142857Y-148652247D02*
X158047619Y-148604628D01*
X158047619Y-148604628D02*
X157857143Y-148557009D01*
X157857143Y-148557009D02*
X157761905Y-148509390D01*
X157761905Y-148509390D02*
X157714286Y-148461771D01*
X157714286Y-148461771D02*
X157666667Y-148366533D01*
X157666667Y-148366533D02*
X157666667Y-148271295D01*
X157666667Y-148271295D02*
X157714286Y-148176057D01*
X157714286Y-148176057D02*
X157761905Y-148128438D01*
X157761905Y-148128438D02*
X157857143Y-148080819D01*
X157857143Y-148080819D02*
X158095238Y-148080819D01*
X158095238Y-148080819D02*
X158238095Y-148128438D01*
X158571429Y-148080819D02*
X158809524Y-149080819D01*
X158809524Y-149080819D02*
X159000000Y-148366533D01*
X159000000Y-148366533D02*
X159190476Y-149080819D01*
X159190476Y-149080819D02*
X159428572Y-148080819D01*
X159714286Y-148080819D02*
X160333333Y-148080819D01*
X160333333Y-148080819D02*
X160000000Y-148461771D01*
X160000000Y-148461771D02*
X160142857Y-148461771D01*
X160142857Y-148461771D02*
X160238095Y-148509390D01*
X160238095Y-148509390D02*
X160285714Y-148557009D01*
X160285714Y-148557009D02*
X160333333Y-148652247D01*
X160333333Y-148652247D02*
X160333333Y-148890342D01*
X160333333Y-148890342D02*
X160285714Y-148985580D01*
X160285714Y-148985580D02*
X160238095Y-149033200D01*
X160238095Y-149033200D02*
X160142857Y-149080819D01*
X160142857Y-149080819D02*
X159857143Y-149080819D01*
X159857143Y-149080819D02*
X159761905Y-149033200D01*
X159761905Y-149033200D02*
X159714286Y-148985580D01*
X130571905Y-168914819D02*
X130571905Y-167914819D01*
X130571905Y-167914819D02*
X130810000Y-167914819D01*
X130810000Y-167914819D02*
X130952857Y-167962438D01*
X130952857Y-167962438D02*
X131048095Y-168057676D01*
X131048095Y-168057676D02*
X131095714Y-168152914D01*
X131095714Y-168152914D02*
X131143333Y-168343390D01*
X131143333Y-168343390D02*
X131143333Y-168486247D01*
X131143333Y-168486247D02*
X131095714Y-168676723D01*
X131095714Y-168676723D02*
X131048095Y-168771961D01*
X131048095Y-168771961D02*
X130952857Y-168867200D01*
X130952857Y-168867200D02*
X130810000Y-168914819D01*
X130810000Y-168914819D02*
X130571905Y-168914819D01*
X131524286Y-168010057D02*
X131571905Y-167962438D01*
X131571905Y-167962438D02*
X131667143Y-167914819D01*
X131667143Y-167914819D02*
X131905238Y-167914819D01*
X131905238Y-167914819D02*
X132000476Y-167962438D01*
X132000476Y-167962438D02*
X132048095Y-168010057D01*
X132048095Y-168010057D02*
X132095714Y-168105295D01*
X132095714Y-168105295D02*
X132095714Y-168200533D01*
X132095714Y-168200533D02*
X132048095Y-168343390D01*
X132048095Y-168343390D02*
X131476667Y-168914819D01*
X131476667Y-168914819D02*
X132095714Y-168914819D01*
X115666667Y-149033200D02*
X115809524Y-149080819D01*
X115809524Y-149080819D02*
X116047619Y-149080819D01*
X116047619Y-149080819D02*
X116142857Y-149033200D01*
X116142857Y-149033200D02*
X116190476Y-148985580D01*
X116190476Y-148985580D02*
X116238095Y-148890342D01*
X116238095Y-148890342D02*
X116238095Y-148795104D01*
X116238095Y-148795104D02*
X116190476Y-148699866D01*
X116190476Y-148699866D02*
X116142857Y-148652247D01*
X116142857Y-148652247D02*
X116047619Y-148604628D01*
X116047619Y-148604628D02*
X115857143Y-148557009D01*
X115857143Y-148557009D02*
X115761905Y-148509390D01*
X115761905Y-148509390D02*
X115714286Y-148461771D01*
X115714286Y-148461771D02*
X115666667Y-148366533D01*
X115666667Y-148366533D02*
X115666667Y-148271295D01*
X115666667Y-148271295D02*
X115714286Y-148176057D01*
X115714286Y-148176057D02*
X115761905Y-148128438D01*
X115761905Y-148128438D02*
X115857143Y-148080819D01*
X115857143Y-148080819D02*
X116095238Y-148080819D01*
X116095238Y-148080819D02*
X116238095Y-148128438D01*
X116571429Y-148080819D02*
X116809524Y-149080819D01*
X116809524Y-149080819D02*
X117000000Y-148366533D01*
X117000000Y-148366533D02*
X117190476Y-149080819D01*
X117190476Y-149080819D02*
X117428572Y-148080819D01*
X118333333Y-149080819D02*
X117761905Y-149080819D01*
X118047619Y-149080819D02*
X118047619Y-148080819D01*
X118047619Y-148080819D02*
X117952381Y-148223676D01*
X117952381Y-148223676D02*
X117857143Y-148318914D01*
X117857143Y-148318914D02*
X117761905Y-148366533D01*
D12*
%TO.C,SW2*%
X110015000Y-169515000D02*
X123985000Y-169515000D01*
X110015000Y-183485000D02*
X110015000Y-169515000D01*
X123985000Y-169515000D02*
X123985000Y-183485000D01*
X123985000Y-183485000D02*
X110015000Y-183485000D01*
%TO.C,SW4*%
X152015000Y-169515000D02*
X165985000Y-169515000D01*
X152015000Y-183485000D02*
X152015000Y-169515000D01*
X165985000Y-169515000D02*
X165985000Y-183485000D01*
X165985000Y-183485000D02*
X152015000Y-183485000D01*
D13*
%TO.C,U1*%
X129140000Y-148420000D02*
X129140000Y-165420000D01*
X131140000Y-167420000D02*
X144940000Y-167420000D01*
X133540000Y-144995970D02*
X142540000Y-144995970D01*
X133540000Y-152349270D02*
X133540000Y-144995970D01*
X142540000Y-144995970D02*
X142540000Y-152349270D01*
X142540000Y-152349270D02*
X133540000Y-152349270D01*
X144940000Y-146420910D02*
X131140000Y-146420910D01*
X146940000Y-165420000D02*
X146940000Y-148420000D01*
D12*
X129140000Y-148420000D02*
G75*
G02*
X131140000Y-146420000I2044612J-44612D01*
G01*
X131140000Y-167420000D02*
G75*
G02*
X129140000Y-165420000I44857J2044857D01*
G01*
X144940000Y-146420000D02*
G75*
G02*
X146940000Y-148420000I-44610J-2044610D01*
G01*
X146940000Y-165420000D02*
G75*
G02*
X144940000Y-167420000I-2000000J0D01*
G01*
D14*
X127167000Y-148120000D02*
G75*
G02*
X126913000Y-148120000I-127000J0D01*
G01*
X126913000Y-148120000D02*
G75*
G02*
X127167000Y-148120000I127000J0D01*
G01*
D15*
X129152285Y-148358295D02*
X129155333Y-148309527D01*
X129159397Y-148260506D01*
X129152285Y-148358295D01*
X146927713Y-165490850D02*
X146924665Y-165539618D01*
X146920601Y-165588639D01*
X146915268Y-165637407D01*
X146908664Y-165686175D01*
X146901044Y-165734690D01*
X146892153Y-165782950D01*
X146882248Y-165830955D01*
X146929492Y-165441574D01*
X146927713Y-165490850D01*
D12*
%TO.C,D1*%
X142710000Y-170184000D02*
X142710000Y-170340000D01*
X142710000Y-172500000D02*
X142710000Y-172656000D01*
X142710000Y-170184484D02*
G75*
G02*
X145941437Y-170340000I1560000J-1235516D01*
G01*
X143229039Y-170340000D02*
G75*
G02*
X145310961Y-170340000I1040961J-1080000D01*
G01*
X145310961Y-172500000D02*
G75*
G02*
X143229039Y-172500000I-1040961J1080000D01*
G01*
X145941437Y-172500000D02*
G75*
G02*
X142710000Y-172655516I-1671437J1080000D01*
G01*
%TO.C,SW3*%
X152015000Y-149515000D02*
X165985000Y-149515000D01*
X152015000Y-163485000D02*
X152015000Y-149515000D01*
X165985000Y-149515000D02*
X165985000Y-163485000D01*
X165985000Y-163485000D02*
X152015000Y-163485000D01*
%TO.C,D2*%
X129750000Y-170184000D02*
X129750000Y-170340000D01*
X129750000Y-172500000D02*
X129750000Y-172656000D01*
X129750000Y-170184484D02*
G75*
G02*
X132981437Y-170340000I1560000J-1235516D01*
G01*
X130269039Y-170340000D02*
G75*
G02*
X132350961Y-170340000I1040961J-1080000D01*
G01*
X132350961Y-172500000D02*
G75*
G02*
X130269039Y-172500000I-1040961J1080000D01*
G01*
X132981437Y-172500000D02*
G75*
G02*
X129750000Y-172655516I-1671437J1080000D01*
G01*
%TO.C,SW1*%
X110015000Y-149515000D02*
X123985000Y-149515000D01*
X110015000Y-163485000D02*
X110015000Y-149515000D01*
X123985000Y-149515000D02*
X123985000Y-163485000D01*
X123985000Y-163485000D02*
X110015000Y-163485000D01*
%TD*%
M02*
