M48
; DRILL file {KiCad 9.0.7} date 2026-03-18T17:46:21+0800
; FORMAT={-:-/ absolute / metric / decimal}
; #@! TF.CreationDate,2026-03-18T17:46:21+08:00
; #@! TF.GenerationSoftware,Kicad,Pcbnew,9.0.7
; #@! TF.FileFunction,Plated,1,2,PTH
FMAT,2
METRIC
; #@! TA.AperFunction,Plated,PTH,ComponentDrill
T1C0.900
; #@! TA.AperFunction,Plated,PTH,ComponentDrill
T2C1.000
; #@! TA.AperFunction,Plated,PTH,ComponentDrill
T3C1.500
%
G90
G05
T1
X130.04Y-171.42
X132.58Y-171.42
X143.0Y-171.42
X145.54Y-171.42
T2
X130.415Y-149.3
X130.415Y-151.84
X130.415Y-154.38
X130.415Y-156.92
X130.415Y-159.46
X130.415Y-162.0
X130.415Y-164.54
X145.665Y-149.3
X145.665Y-151.84
X145.665Y-154.38
X145.665Y-156.92
X145.665Y-159.46
X145.665Y-162.0
X145.665Y-164.54
T3
X113.19Y-153.96
X113.19Y-173.96
X119.54Y-151.42
X119.54Y-171.42
X155.19Y-153.96
X155.19Y-173.96
X161.54Y-151.42
X161.54Y-171.42
M30
