M48
; DRILL file {KiCad 9.0.7} date 2026-03-20T10:46:40+0800
; FORMAT={-:-/ absolute / metric / decimal}
; #@! TF.CreationDate,2026-03-20T10:46:40+08:00
; #@! TF.GenerationSoftware,Kicad,Pcbnew,9.0.7
; #@! TF.FileFunction,Plated,1,2,PTH
FMAT,2
METRIC
; #@! TA.AperFunction,Plated,PTH,ComponentDrill
T1C1.000
; #@! TA.AperFunction,Plated,PTH,ComponentDrill
T2C1.500
; #@! TA.AperFunction,Plated,PTH,ComponentDrill
T3C2.600
%
G90
G05
T1
X129.375Y-100.88
X129.375Y-103.42
X129.375Y-105.96
X129.375Y-108.5
X129.375Y-111.04
X129.375Y-113.58
X129.375Y-116.12
X129.5Y-136.0
X129.5Y-138.5
X129.5Y-141.0
X144.0Y-136.0
X144.0Y-141.0
X144.625Y-100.88
X144.625Y-103.42
X144.625Y-105.96
X144.625Y-108.5
X144.625Y-111.04
X144.625Y-113.58
X144.625Y-116.12
X154.5Y-151.69
X154.5Y-154.23
X154.5Y-156.77
X154.5Y-159.31
T2
X112.15Y-105.54
X112.15Y-125.54
X118.5Y-103.0
X118.5Y-123.0
X154.15Y-105.54
X154.15Y-125.54
X160.5Y-103.0
X160.5Y-123.0
T3
X137.0Y-132.9
X137.0Y-144.1
M30
