%TF.GenerationSoftware,KiCad,Pcbnew,9.0.7*%
%TF.CreationDate,2026-03-17T20:33:41+08:00*%
%TF.ProjectId,myhackpader,6d796861-636b-4706-9164-65722e6b6963,rev?*%
%TF.SameCoordinates,Original*%
%TF.FileFunction,Legend,Top*%
%TF.FilePolarity,Positive*%
%FSLAX46Y46*%
G04 Gerber Fmt 4.6, Leading zero omitted, Abs format (unit mm)*
G04 Created by KiCad (PCBNEW 9.0.7) date 2026-03-17 20:33:41*
%MOMM*%
%LPD*%
G01*
G04 APERTURE LIST*
%ADD10C,0.150000*%
%ADD11C,0.120000*%
G04 APERTURE END LIST*
D10*
X75461713Y-66681237D02*
X75604570Y-66728856D01*
X75604570Y-66728856D02*
X75842665Y-66728856D01*
X75842665Y-66728856D02*
X75937903Y-66681237D01*
X75937903Y-66681237D02*
X75985522Y-66633617D01*
X75985522Y-66633617D02*
X76033141Y-66538379D01*
X76033141Y-66538379D02*
X76033141Y-66443141D01*
X76033141Y-66443141D02*
X75985522Y-66347903D01*
X75985522Y-66347903D02*
X75937903Y-66300284D01*
X75937903Y-66300284D02*
X75842665Y-66252665D01*
X75842665Y-66252665D02*
X75652189Y-66205046D01*
X75652189Y-66205046D02*
X75556951Y-66157427D01*
X75556951Y-66157427D02*
X75509332Y-66109808D01*
X75509332Y-66109808D02*
X75461713Y-66014570D01*
X75461713Y-66014570D02*
X75461713Y-65919332D01*
X75461713Y-65919332D02*
X75509332Y-65824094D01*
X75509332Y-65824094D02*
X75556951Y-65776475D01*
X75556951Y-65776475D02*
X75652189Y-65728856D01*
X75652189Y-65728856D02*
X75890284Y-65728856D01*
X75890284Y-65728856D02*
X76033141Y-65776475D01*
X76366475Y-65728856D02*
X76604570Y-66728856D01*
X76604570Y-66728856D02*
X76795046Y-66014570D01*
X76795046Y-66014570D02*
X76985522Y-66728856D01*
X76985522Y-66728856D02*
X77223618Y-65728856D01*
X77556951Y-65824094D02*
X77604570Y-65776475D01*
X77604570Y-65776475D02*
X77699808Y-65728856D01*
X77699808Y-65728856D02*
X77937903Y-65728856D01*
X77937903Y-65728856D02*
X78033141Y-65776475D01*
X78033141Y-65776475D02*
X78080760Y-65824094D01*
X78080760Y-65824094D02*
X78128379Y-65919332D01*
X78128379Y-65919332D02*
X78128379Y-66014570D01*
X78128379Y-66014570D02*
X78080760Y-66157427D01*
X78080760Y-66157427D02*
X77509332Y-66728856D01*
X77509332Y-66728856D02*
X78128379Y-66728856D01*
X75494834Y-85804585D02*
X75637691Y-85852204D01*
X75637691Y-85852204D02*
X75875786Y-85852204D01*
X75875786Y-85852204D02*
X75971024Y-85804585D01*
X75971024Y-85804585D02*
X76018643Y-85756965D01*
X76018643Y-85756965D02*
X76066262Y-85661727D01*
X76066262Y-85661727D02*
X76066262Y-85566489D01*
X76066262Y-85566489D02*
X76018643Y-85471251D01*
X76018643Y-85471251D02*
X75971024Y-85423632D01*
X75971024Y-85423632D02*
X75875786Y-85376013D01*
X75875786Y-85376013D02*
X75685310Y-85328394D01*
X75685310Y-85328394D02*
X75590072Y-85280775D01*
X75590072Y-85280775D02*
X75542453Y-85233156D01*
X75542453Y-85233156D02*
X75494834Y-85137918D01*
X75494834Y-85137918D02*
X75494834Y-85042680D01*
X75494834Y-85042680D02*
X75542453Y-84947442D01*
X75542453Y-84947442D02*
X75590072Y-84899823D01*
X75590072Y-84899823D02*
X75685310Y-84852204D01*
X75685310Y-84852204D02*
X75923405Y-84852204D01*
X75923405Y-84852204D02*
X76066262Y-84899823D01*
X76399596Y-84852204D02*
X76637691Y-85852204D01*
X76637691Y-85852204D02*
X76828167Y-85137918D01*
X76828167Y-85137918D02*
X77018643Y-85852204D01*
X77018643Y-85852204D02*
X77256739Y-84852204D01*
X77542453Y-84852204D02*
X78161500Y-84852204D01*
X78161500Y-84852204D02*
X77828167Y-85233156D01*
X77828167Y-85233156D02*
X77971024Y-85233156D01*
X77971024Y-85233156D02*
X78066262Y-85280775D01*
X78066262Y-85280775D02*
X78113881Y-85328394D01*
X78113881Y-85328394D02*
X78161500Y-85423632D01*
X78161500Y-85423632D02*
X78161500Y-85661727D01*
X78161500Y-85661727D02*
X78113881Y-85756965D01*
X78113881Y-85756965D02*
X78066262Y-85804585D01*
X78066262Y-85804585D02*
X77971024Y-85852204D01*
X77971024Y-85852204D02*
X77685310Y-85852204D01*
X77685310Y-85852204D02*
X77590072Y-85804585D01*
X77590072Y-85804585D02*
X77542453Y-85756965D01*
X75437729Y-47590341D02*
X75580586Y-47637960D01*
X75580586Y-47637960D02*
X75818681Y-47637960D01*
X75818681Y-47637960D02*
X75913919Y-47590341D01*
X75913919Y-47590341D02*
X75961538Y-47542721D01*
X75961538Y-47542721D02*
X76009157Y-47447483D01*
X76009157Y-47447483D02*
X76009157Y-47352245D01*
X76009157Y-47352245D02*
X75961538Y-47257007D01*
X75961538Y-47257007D02*
X75913919Y-47209388D01*
X75913919Y-47209388D02*
X75818681Y-47161769D01*
X75818681Y-47161769D02*
X75628205Y-47114150D01*
X75628205Y-47114150D02*
X75532967Y-47066531D01*
X75532967Y-47066531D02*
X75485348Y-47018912D01*
X75485348Y-47018912D02*
X75437729Y-46923674D01*
X75437729Y-46923674D02*
X75437729Y-46828436D01*
X75437729Y-46828436D02*
X75485348Y-46733198D01*
X75485348Y-46733198D02*
X75532967Y-46685579D01*
X75532967Y-46685579D02*
X75628205Y-46637960D01*
X75628205Y-46637960D02*
X75866300Y-46637960D01*
X75866300Y-46637960D02*
X76009157Y-46685579D01*
X76342491Y-46637960D02*
X76580586Y-47637960D01*
X76580586Y-47637960D02*
X76771062Y-46923674D01*
X76771062Y-46923674D02*
X76961538Y-47637960D01*
X76961538Y-47637960D02*
X77199634Y-46637960D01*
X78104395Y-47637960D02*
X77532967Y-47637960D01*
X77818681Y-47637960D02*
X77818681Y-46637960D01*
X77818681Y-46637960D02*
X77723443Y-46780817D01*
X77723443Y-46780817D02*
X77628205Y-46876055D01*
X77628205Y-46876055D02*
X77532967Y-46923674D01*
X75280889Y-55670188D02*
X75947555Y-56670188D01*
X75947555Y-55670188D02*
X75280889Y-56670188D01*
X76328508Y-56670188D02*
X76328508Y-55670188D01*
X76757079Y-56384473D02*
X77233269Y-56384473D01*
X76661841Y-56670188D02*
X76995174Y-55670188D01*
X76995174Y-55670188D02*
X77328507Y-56670188D01*
X77852317Y-55670188D02*
X78042793Y-55670188D01*
X78042793Y-55670188D02*
X78138031Y-55717807D01*
X78138031Y-55717807D02*
X78233269Y-55813045D01*
X78233269Y-55813045D02*
X78280888Y-56003521D01*
X78280888Y-56003521D02*
X78280888Y-56336854D01*
X78280888Y-56336854D02*
X78233269Y-56527330D01*
X78233269Y-56527330D02*
X78138031Y-56622569D01*
X78138031Y-56622569D02*
X78042793Y-56670188D01*
X78042793Y-56670188D02*
X77852317Y-56670188D01*
X77852317Y-56670188D02*
X77757079Y-56622569D01*
X77757079Y-56622569D02*
X77661841Y-56527330D01*
X77661841Y-56527330D02*
X77614222Y-56336854D01*
X77614222Y-56336854D02*
X77614222Y-56003521D01*
X77614222Y-56003521D02*
X77661841Y-55813045D01*
X77661841Y-55813045D02*
X77757079Y-55717807D01*
X77757079Y-55717807D02*
X77852317Y-55670188D01*
D11*
%TO.C,SW2*%
X69810046Y-67163037D02*
X83780046Y-67163037D01*
X69810046Y-81133037D02*
X69810046Y-67163037D01*
X83780046Y-67163037D02*
X83780046Y-81133037D01*
X83780046Y-81133037D02*
X69810046Y-81133037D01*
%TO.C,SW3*%
X69843167Y-86286385D02*
X83813167Y-86286385D01*
X69843167Y-100256385D02*
X69843167Y-86286385D01*
X83813167Y-86286385D02*
X83813167Y-100256385D01*
X83813167Y-100256385D02*
X69843167Y-100256385D01*
%TO.C,SW1*%
X69786062Y-48072141D02*
X83756062Y-48072141D01*
X69786062Y-62042141D02*
X69786062Y-48072141D01*
X83756062Y-48072141D02*
X83756062Y-62042141D01*
X83756062Y-62042141D02*
X69786062Y-62042141D01*
%TD*%
M02*
