M48
; DRILL file {KiCad 9.0.7} date 2026-03-17T20:34:14+0800
; FORMAT={-:-/ absolute / metric / decimal}
; #@! TF.CreationDate,2026-03-17T20:34:14+08:00
; #@! TF.GenerationSoftware,Kicad,Pcbnew,9.0.7
; #@! TF.FileFunction,Plated,1,2,PTH
FMAT,2
METRIC
; #@! TA.AperFunction,Plated,PTH,ComponentDrill
T1C1.000
; #@! TA.AperFunction,Plated,PTH,ComponentDrill
T2C1.500
%
G90
G05
T1
X69.18Y-48.595
X69.18Y-51.135
X69.18Y-53.675
X69.18Y-56.215
X69.18Y-58.755
X69.18Y-61.295
X69.18Y-63.835
X84.43Y-48.595
X84.43Y-51.135
X84.43Y-53.675
X84.43Y-56.215
X84.43Y-58.755
X84.43Y-61.295
X84.43Y-63.835
T2
X72.961Y-52.517
X72.985Y-71.608
X73.018Y-90.731
X79.311Y-49.977
X79.335Y-69.068
X79.368Y-88.191
M30
